<mxfile host="app.diagrams.net" modified="2023-11-17T07:15:46.704Z" agent="Mozilla/5.0 (Macintosh; Intel Mac OS X 10_15_7) AppleWebKit/537.36 (KHTML, like Gecko) Chrome/119.0.0.0 Safari/537.36" etag="aI9IcY88-wrwyb5w45_R" version="22.1.2" type="github">
  <diagram name="第 1 页" id="_USDuQy9z8BVMzFLDjNQ">
    <mxGraphModel dx="2860" dy="1142" grid="0" gridSize="10" guides="1" tooltips="1" connect="1" arrows="1" fold="1" page="0" pageScale="1" pageWidth="827" pageHeight="1169" math="0" shadow="0">
      <root>
        <mxCell id="0" />
        <mxCell id="1" parent="0" />
        <mxCell id="Q5dizfhmgUC72AgtRbeX-20" value="" style="rounded=1;whiteSpace=wrap;html=1;fillColor=#f5f5f5;fontColor=#333333;strokeColor=#666666;" vertex="1" parent="1">
          <mxGeometry x="92" y="184" width="485" height="598" as="geometry" />
        </mxCell>
        <mxCell id="Q5dizfhmgUC72AgtRbeX-3" value="" style="rounded=1;whiteSpace=wrap;html=1;fillColor=#f5f5f5;fontColor=#333333;strokeColor=#666666;" vertex="1" parent="1">
          <mxGeometry x="-538" y="184" width="485" height="598" as="geometry" />
        </mxCell>
        <mxCell id="Q5dizfhmgUC72AgtRbeX-4" value="&lt;b&gt;&lt;font style=&quot;font-size: 16px;&quot;&gt;Office Network&lt;/font&gt;&lt;/b&gt;" style="text;html=1;strokeColor=none;fillColor=none;align=center;verticalAlign=middle;whiteSpace=wrap;rounded=0;" vertex="1" parent="1">
          <mxGeometry x="-495" y="209" width="91" height="31" as="geometry" />
        </mxCell>
        <mxCell id="Q5dizfhmgUC72AgtRbeX-15" style="edgeStyle=orthogonalEdgeStyle;rounded=0;orthogonalLoop=1;jettySize=auto;html=1;" edge="1" parent="1" source="Q5dizfhmgUC72AgtRbeX-10" target="Q5dizfhmgUC72AgtRbeX-14">
          <mxGeometry relative="1" as="geometry" />
        </mxCell>
        <mxCell id="Q5dizfhmgUC72AgtRbeX-27" value="" style="edgeStyle=orthogonalEdgeStyle;rounded=0;orthogonalLoop=1;jettySize=auto;html=1;" edge="1" parent="1" source="Q5dizfhmgUC72AgtRbeX-10" target="Q5dizfhmgUC72AgtRbeX-23">
          <mxGeometry relative="1" as="geometry" />
        </mxCell>
        <mxCell id="Q5dizfhmgUC72AgtRbeX-10" value="lc.shopee.io" style="ellipse;shape=cloud;whiteSpace=wrap;html=1;fillColor=#dae8fc;strokeColor=#6c8ebf;" vertex="1" parent="1">
          <mxGeometry x="-255.5" y="280" width="131" height="84" as="geometry" />
        </mxCell>
        <mxCell id="Q5dizfhmgUC72AgtRbeX-16" style="edgeStyle=orthogonalEdgeStyle;rounded=0;orthogonalLoop=1;jettySize=auto;html=1;" edge="1" parent="1" source="Q5dizfhmgUC72AgtRbeX-11" target="Q5dizfhmgUC72AgtRbeX-13">
          <mxGeometry relative="1" as="geometry" />
        </mxCell>
        <mxCell id="Q5dizfhmgUC72AgtRbeX-28" style="edgeStyle=orthogonalEdgeStyle;rounded=0;orthogonalLoop=1;jettySize=auto;html=1;" edge="1" parent="1" source="Q5dizfhmgUC72AgtRbeX-11" target="Q5dizfhmgUC72AgtRbeX-24">
          <mxGeometry relative="1" as="geometry" />
        </mxCell>
        <mxCell id="Q5dizfhmgUC72AgtRbeX-11" value="unpkg.shopee.io" style="ellipse;shape=cloud;whiteSpace=wrap;html=1;fillColor=#d5e8d4;strokeColor=#82b366;" vertex="1" parent="1">
          <mxGeometry x="-250" y="410" width="131" height="84" as="geometry" />
        </mxCell>
        <mxCell id="Q5dizfhmgUC72AgtRbeX-19" style="edgeStyle=orthogonalEdgeStyle;rounded=0;orthogonalLoop=1;jettySize=auto;html=1;" edge="1" parent="1" source="Q5dizfhmgUC72AgtRbeX-13" target="Q5dizfhmgUC72AgtRbeX-17">
          <mxGeometry relative="1" as="geometry">
            <Array as="points">
              <mxPoint x="-185" y="565" />
              <mxPoint x="-319" y="565" />
            </Array>
          </mxGeometry>
        </mxCell>
        <mxCell id="Q5dizfhmgUC72AgtRbeX-13" value=".css&lt;br&gt;.js" style="shape=parallelogram;perimeter=parallelogramPerimeter;whiteSpace=wrap;html=1;fixedSize=1;fillColor=#d5e8d4;strokeColor=#82b366;" vertex="1" parent="1">
          <mxGeometry x="-244.5" y="530" width="120" height="60" as="geometry" />
        </mxCell>
        <mxCell id="Q5dizfhmgUC72AgtRbeX-18" style="edgeStyle=orthogonalEdgeStyle;rounded=0;orthogonalLoop=1;jettySize=auto;html=1;" edge="1" parent="1" source="Q5dizfhmgUC72AgtRbeX-14" target="Q5dizfhmgUC72AgtRbeX-17">
          <mxGeometry relative="1" as="geometry" />
        </mxCell>
        <mxCell id="Q5dizfhmgUC72AgtRbeX-14" value="schema data" style="shape=parallelogram;perimeter=parallelogramPerimeter;whiteSpace=wrap;html=1;fixedSize=1;fillColor=#dae8fc;strokeColor=#6c8ebf;" vertex="1" parent="1">
          <mxGeometry x="-496.5" y="441" width="120" height="60" as="geometry" />
        </mxCell>
        <mxCell id="Q5dizfhmgUC72AgtRbeX-17" value="Render" style="rounded=0;whiteSpace=wrap;html=1;" vertex="1" parent="1">
          <mxGeometry x="-381" y="631" width="120" height="60" as="geometry" />
        </mxCell>
        <mxCell id="Q5dizfhmgUC72AgtRbeX-21" value="&lt;b&gt;&lt;font style=&quot;font-size: 16px;&quot;&gt;Bank Network&lt;/font&gt;&lt;/b&gt;" style="text;html=1;strokeColor=none;fillColor=none;align=center;verticalAlign=middle;whiteSpace=wrap;rounded=0;" vertex="1" parent="1">
          <mxGeometry x="141" y="213" width="91" height="31" as="geometry" />
        </mxCell>
        <mxCell id="Q5dizfhmgUC72AgtRbeX-22" value="" style="shape=image;verticalLabelPosition=bottom;labelBackgroundColor=default;verticalAlign=top;aspect=fixed;imageAspect=0;image=data:image/jpeg,/9j/4AAQSkZJRgABAQAAAQABAAD/2wCEAAkGBxMQEhUSEhEVFhUXFR4YGRgYFRcVFxgbFRcWHSEfHxUgHzQgGB0lHRYVIjItJy4tLi86GCAzRD8sNygtNysBCgoKDg0OGhAQGzUlICU1Li0tLS0uLS0tKysvLS0tLzItLTAuLS03LS01Ly0tLS0vLTgtLTUtNS0tLS0tNS0tL//AABEIAHAAcAMBEQACEQEDEQH/xAAbAAACAwEBAQAAAAAAAAAAAAAABgEFBwQDAv/EADwQAAECAwMHCAkEAwEAAAAAAAEAAgMEEQUGMRIhQVFhcZEHIiNSgaGxwRMUMkJicqLh8GOS0eIWssJT/8QAGwEAAQUBAQAAAAAAAAAAAAAAAAIDBAUGAQf/xAAzEQACAQIDAwoGAwEBAAAAAAAAAQIDBAURMRIhQRMiMlFxgaHB0eEUYWKRsfAGFfFSQv/aAAwDAQACEQMRAD8A3FAAgAQBxWpa0GWblRojWDQDidzRnPYkTnGCzkx6hb1azyprMRrW5STUiWhCnWiZz+wYcVEnef8AKL2hgS1qy7l6ixOXpnIvtTDwNTTkD6aKPKvUerLSnh9tT0gu/f8Akq4kw93tPcd5JTTbZLUIrRH1CmHt9l7huJCE2gcIvVFrJXom4XszDyNTjlj6qpyNepHiRKmH21TWC7t34GeyuUY1AmIQp1oeP7DjxUmF5/0irr4EtaUu5+o72bakGZblQYjXjTTEb24jtUuE4zWcWUVa3q0XlUWR2JYyCABAAgAQAnXwvq2VrCgUfG0nFsPfrds0adSi1rhQ3R1LjD8LlX59TdHxfsZdOzsSO8xIry9xxJP5QKvlJyebNRSpQpR2YLJHiFwcPoLgEhAH0gCQgCQgDokZyJBeHwnlrhpH5nCVGTi80N1aUKsdmazRpt074tmaQo1GRdBwa/dqdsVhRuFPdLUy+IYXKhz6e+PivYbFKKcEACAE+/t6vVW+hhHpnjH/AM2nT8x0cdVY1xW2FsrUt8Lw/l5cpPorxfoZKTXOcVWmtJCAJCAPoLgEhAH0gCQgCQgCQgD6aaZxigGszU7kXm9ab6GKemaMeuBp+YaeOullb19tbL1MlimH8hLlIdF+D9BrUoqDktafbLwnxXYNGGs6B2miTKWysxFSoqcXJ8DCLTmHxYr4kU1e51Sd+rZSlNlFUTbcm2b6zlSlQhKj0Wt3719fzOcJJJJCAJCALexruTM3nhQzk9d3NbxOPZVOQoznoiJcX1ChunLf1cRnluTSIR0kwxp+Fpf3khSFZviysnj0F0YN9ry9T1icmjvdmgd8Mj/opE7Souhk+3d5MTHHo8YePsV81ceJC9qJm1hlRxylUXVe4tt9Slu6881+CVTxaFTorx9jm/xf9b6P7KF/b/R4+w98d9Pj7B/jH630f2R/cfR4+wfHfT4+wf4z+r9H9lz+4+jx9g+O+nx9jokbFdBiNiMjUc01HM/thoSo404vNQ8fYRVuo1YOEo7n8/Y1CTmBEY140jv0rW2txG4pRqx4mSq03CbixH5SrROVDlwcwGW7eagcBXiEm4lwKbEam9QXaZ/OQ6ioxHh9vPYoc1xNB/FcSyk7Sb13x7eK8/v1nGE0bkkIAe7i3OEYCYmG9H7jOvtPw+O7GXb2+1zpaFFieJum+SpPfxfV7/gYrwX0gSdYMJoiRG5sltGsZTQTs1DuWitMMqVkpPdH90MZc38YNrWX7qJc3f6deea9sMamsae91SriGFW8dVn2v0yK2V/WejyCUv8ATrDzntiDU5jR3toUTwq3losux+uYRv6y1eY63cvrBmyIURvo4hzUOdjtgdr2HvVNeYXOlFvpR/dUWNvfRqNJ7mdNs2VkdJDHN0jVtGxYDFsJVJOtRXN4rq+a+X47NNFa3W1zJ6lKs6TwQdIXAL27MxndDPzDz8uC038duWpSoPtXn5Fbf09yn3Ge3qmvSzcZ3xlo3M5vkryo85MxVzLaqyZUgpA3TqSpzU4PJreu04Y8PJNNGI3fngo8lkz1vDb6N7bxrR14rqfH2+RZXWsr1uZhwj7JNXfK3OeOHal0obc0hy9uOQoynx4dppF/Ld9SgNhQqNe8ZLaZshgFCQNGgD7LU4ZaKtPOXRiedX9y4R3PnMyMlakoAQAIAAUAa7cG3zNwTDimsSHQGvvNOBO3EH7rK4pZxpTzS5sv1ovrG5dSOT1R4WjLeiiOboxG4ryu/tvh68qfDh2P9yNXQqcpBSOZQx4hcA67KiZMZh20/dm81Owyryd3Tl88vvuGbmO1SkjOo78pzjrJPErYM85k822edUHD4isyhTTiP47fIJM1mjR/xzEvhbjk5vmz3dj4PyfsOPJLABiR36Wsa395J/4Cds1vbNXj08oQj1tv7f6VfKRNF889pwhta0drQ497itzhUFG3T6835eR55fyzrNdQrqxIQIAEACAGjk3mSyeY0YRGuaexpd4tCrsVgpW7fVk/LzJthLKsl1mgXmZzmHWCOB+68q/kUFykJdaa+3+mxsHzZIpFnCwBcOkwzQg7UqDykmce9CFMtyXubqcRwK3j1PNZLJtHlVcEkVQdHfktiARY7euxrqfISD/uOKett0mus2Kv3e2dNy6UHsy71uffl90ym5SZUsnXO0RGNcOxuT4sK2uFT2rdLqzXn5mYv45Vm+sVlZEIEACABADTybSpfOtdohsc49rcnxcq3FZqNu115Lz8ibYRzrJ9Q/3mfzmDUCeJH8Lyz+RTTqQj1Jv7/wCGxsFzZMpVnCwBcAmG2pA2pUI7UkjknkmxRvXL+im4zfjLhufzvNb2ospM88uY7NWSKmqQMEIAtLs2r6rMMiH2a0d8pzHhWqXCWzLMk2td0Z58HuZoF+rC9dgNiQqOiMGU2nvtIqQDp0EfdaDDbtUamUui/wBzLK8octDajqvFGQkLVFCCABAAAgDXrh2D6nAMSKKRImd1fcaMBvxJ+yyuJ3iqzyT5sf1svrK3dKGb1Z42jMekiOdowG4Ly6/ufiK8qnDh2I1VCnycFE5lDHQXDp1WXCyorBtrwz+SnYbS5S6pr55/beM3EtmlJlZyn2bR0OYAzEZDt4qW92UOwLbV48TG4jS3qa7BCUYrCEACAHW5N7xBAl5g9H7j+psPw+G7CRSq5bmWNpd7HMnpwZf3iuZBnemhOEN7hXKaA5j66SB4jvV5aYnOitl74/jsJNeyhW50Xk/BiXN3BnWHmsbEGtr2judQq4hitvLV5dq9MyvlYVloswlLgzrzzmNhjW57T3NqUTxW3jo8+xeuQRsKz1WQ6XduZAkumivER7RXKdRrGU0gHxPcqe7xOdZbK3R/JYULKFHnSeb8EROW+JklsE9E00L+u7UPhHfuGfHYzfbNPkoay17PctMPXL1HNdGPi/Y5FlC8BcAhcAvLty+d0Q/KPPyWl/j9vvlWfYvPyK++qaQ7yxtez2zMF8F2DhSuo4g9hoVpZR2lkVNWmqkHFmJT0o+DEdCiCjmmhH5oOKgNNPJmdnBwk4s51wSRVAEVXQLSyLxTEpmhRDk9U85vA4dlEqM5R0HqVxUp9FjLL8pcQDpJdjj8LizuIKeVd8UTI4jLjEJnlLiEdHLsaficX9wAQ674IJYjLhEXZ22pq0HthviEgnMwc1g2kDGmOeqj1q+zFym9yGFOtczVPPXgOEnLCExrG4NFPv2rG16sq1RzfE29vQjQpqnHgeqZHwXAPqDCL3BrRnJTlKlKrNQhqzkpKKzY4SsAQ2Bo0Bb+2oRoUo048CiqTc5OTPVPiBTvzdn1pvpoQ6Zgw67Ro+YaOGpM1ae1vWpBvLblFtR1XiZS7MohSkVQBFUARVAEVQBFUAN90LOyWmM4Z3Zm7G6+3y2qjxW5zfIx7/JeZqMDs9mLry47l2dYxKlNAC4dCiMgGOx7P9GMp3tEcB/K1+E4d8PHlJ9J+C9esqbq423sx0/JZq5IgIAEAKN7bmNmqxYNGRtOhr9+p21M1KW1vRBubNVOdHc/yZhPScSA8w4rCxw0H8zjaorTTyZTzhKDykjmquCSKoAiqAO2xpAzEUM0YuOoD8p2pi5rqjTc33dpLsrV3FZQWnHsNFYwNAAFABQDUAsnKTk3J6s3cYqKUVoiUkUfcKEXmjRUpdKjOrLZgs2JlNRWbL+zbKEPnOzu7h91qsPwmNDn1N8vBe/zKyvdOfNjoWauSICABAAgAQBxWnZUGZbkxobXjRXEbnDOEmUVLUbqUoVFlJCLa3Js4EmWigjqxMx/eMx4BMSodRXVMOesH9xWnLrTkL2pZ52tGWPpqmnTkuBElbVY6xKqLLvb7THDe0hJyGXFrVD5deyjBhVLTlvznNgNA/Naz2IVZVqmzFZpfk1+FWqoUdqXSlv7FwRfw7PiOwYe3N4pinh9zU0g+/d+SxlXpx1Z3y9hnF7uwfyrShgT1rS7l6kad6v/ACi2l5dsMUa0Dx4q9oW1KhHKnHIgzqSm85M9U+IBAAgD/9k=;" vertex="1" parent="1">
          <mxGeometry x="-347" y="707" width="61" height="61" as="geometry" />
        </mxCell>
        <mxCell id="Q5dizfhmgUC72AgtRbeX-29" style="edgeStyle=orthogonalEdgeStyle;rounded=0;orthogonalLoop=1;jettySize=auto;html=1;" edge="1" parent="1" source="Q5dizfhmgUC72AgtRbeX-23" target="Q5dizfhmgUC72AgtRbeX-25">
          <mxGeometry relative="1" as="geometry" />
        </mxCell>
        <mxCell id="Q5dizfhmgUC72AgtRbeX-23" value="schema data" style="shape=parallelogram;perimeter=parallelogramPerimeter;whiteSpace=wrap;html=1;fixedSize=1;fillColor=#dae8fc;strokeColor=#6c8ebf;" vertex="1" parent="1">
          <mxGeometry x="145" y="292" width="120" height="60" as="geometry" />
        </mxCell>
        <mxCell id="Q5dizfhmgUC72AgtRbeX-30" style="edgeStyle=orthogonalEdgeStyle;rounded=0;orthogonalLoop=1;jettySize=auto;html=1;" edge="1" parent="1" source="Q5dizfhmgUC72AgtRbeX-24" target="Q5dizfhmgUC72AgtRbeX-25">
          <mxGeometry relative="1" as="geometry" />
        </mxCell>
        <mxCell id="Q5dizfhmgUC72AgtRbeX-24" value=".css&lt;br&gt;.js" style="shape=parallelogram;perimeter=parallelogramPerimeter;whiteSpace=wrap;html=1;fixedSize=1;fillColor=#d5e8d4;strokeColor=#82b366;" vertex="1" parent="1">
          <mxGeometry x="141" y="422" width="120" height="60" as="geometry" />
        </mxCell>
        <mxCell id="Q5dizfhmgUC72AgtRbeX-25" value="Render" style="rounded=0;whiteSpace=wrap;html=1;" vertex="1" parent="1">
          <mxGeometry x="274.5" y="560" width="120" height="60" as="geometry" />
        </mxCell>
        <mxCell id="Q5dizfhmgUC72AgtRbeX-26" value="" style="shape=image;verticalLabelPosition=bottom;labelBackgroundColor=default;verticalAlign=top;aspect=fixed;imageAspect=0;image=data:image/jpeg,/9j/4AAQSkZJRgABAQAAAQABAAD/2wCEAAkGBxMQEhUSEhEVFhUXFR4YGRgYFRcVFxgbFRcWHSEfHxUgHzQgGB0lHRYVIjItJy4tLi86GCAzRD8sNygtNysBCgoKDg0OGhAQGzUlICU1Li0tLS0uLS0tKysvLS0tLzItLTAuLS03LS01Ly0tLS0vLTgtLTUtNS0tLS0tNS0tL//AABEIAHAAcAMBEQACEQEDEQH/xAAbAAACAwEBAQAAAAAAAAAAAAAABgEFBwQDAv/EADwQAAECAwMHCAkEAwEAAAAAAAEAAgMEEQUGMRIhQVFhcZEHIiNSgaGxwRMUMkJicqLh8GOS0eIWssJT/8QAGwEAAQUBAQAAAAAAAAAAAAAAAAIDBAUGAQf/xAAzEQACAQIDAwoGAwEBAAAAAAAAAQIDBAURMRIhQRMiMlFxgaHB0eEUYWKRsfAGFfFSQv/aAAwDAQACEQMRAD8A3FAAgAQBxWpa0GWblRojWDQDidzRnPYkTnGCzkx6hb1azyprMRrW5STUiWhCnWiZz+wYcVEnef8AKL2hgS1qy7l6ixOXpnIvtTDwNTTkD6aKPKvUerLSnh9tT0gu/f8Akq4kw93tPcd5JTTbZLUIrRH1CmHt9l7huJCE2gcIvVFrJXom4XszDyNTjlj6qpyNepHiRKmH21TWC7t34GeyuUY1AmIQp1oeP7DjxUmF5/0irr4EtaUu5+o72bakGZblQYjXjTTEb24jtUuE4zWcWUVa3q0XlUWR2JYyCABAAgAQAnXwvq2VrCgUfG0nFsPfrds0adSi1rhQ3R1LjD8LlX59TdHxfsZdOzsSO8xIry9xxJP5QKvlJyebNRSpQpR2YLJHiFwcPoLgEhAH0gCQgCQgDokZyJBeHwnlrhpH5nCVGTi80N1aUKsdmazRpt074tmaQo1GRdBwa/dqdsVhRuFPdLUy+IYXKhz6e+PivYbFKKcEACAE+/t6vVW+hhHpnjH/AM2nT8x0cdVY1xW2FsrUt8Lw/l5cpPorxfoZKTXOcVWmtJCAJCAPoLgEhAH0gCQgCQgCQgD6aaZxigGszU7kXm9ab6GKemaMeuBp+YaeOullb19tbL1MlimH8hLlIdF+D9BrUoqDktafbLwnxXYNGGs6B2miTKWysxFSoqcXJ8DCLTmHxYr4kU1e51Sd+rZSlNlFUTbcm2b6zlSlQhKj0Wt3719fzOcJJJJCAJCALexruTM3nhQzk9d3NbxOPZVOQoznoiJcX1ChunLf1cRnluTSIR0kwxp+Fpf3khSFZviysnj0F0YN9ry9T1icmjvdmgd8Mj/opE7Souhk+3d5MTHHo8YePsV81ceJC9qJm1hlRxylUXVe4tt9Slu6881+CVTxaFTorx9jm/xf9b6P7KF/b/R4+w98d9Pj7B/jH630f2R/cfR4+wfHfT4+wf4z+r9H9lz+4+jx9g+O+nx9jokbFdBiNiMjUc01HM/thoSo404vNQ8fYRVuo1YOEo7n8/Y1CTmBEY140jv0rW2txG4pRqx4mSq03CbixH5SrROVDlwcwGW7eagcBXiEm4lwKbEam9QXaZ/OQ6ioxHh9vPYoc1xNB/FcSyk7Sb13x7eK8/v1nGE0bkkIAe7i3OEYCYmG9H7jOvtPw+O7GXb2+1zpaFFieJum+SpPfxfV7/gYrwX0gSdYMJoiRG5sltGsZTQTs1DuWitMMqVkpPdH90MZc38YNrWX7qJc3f6deea9sMamsae91SriGFW8dVn2v0yK2V/WejyCUv8ATrDzntiDU5jR3toUTwq3losux+uYRv6y1eY63cvrBmyIURvo4hzUOdjtgdr2HvVNeYXOlFvpR/dUWNvfRqNJ7mdNs2VkdJDHN0jVtGxYDFsJVJOtRXN4rq+a+X47NNFa3W1zJ6lKs6TwQdIXAL27MxndDPzDz8uC038duWpSoPtXn5Fbf09yn3Ge3qmvSzcZ3xlo3M5vkryo85MxVzLaqyZUgpA3TqSpzU4PJreu04Y8PJNNGI3fngo8lkz1vDb6N7bxrR14rqfH2+RZXWsr1uZhwj7JNXfK3OeOHal0obc0hy9uOQoynx4dppF/Ld9SgNhQqNe8ZLaZshgFCQNGgD7LU4ZaKtPOXRiedX9y4R3PnMyMlakoAQAIAAUAa7cG3zNwTDimsSHQGvvNOBO3EH7rK4pZxpTzS5sv1ovrG5dSOT1R4WjLeiiOboxG4ryu/tvh68qfDh2P9yNXQqcpBSOZQx4hcA67KiZMZh20/dm81Owyryd3Tl88vvuGbmO1SkjOo78pzjrJPErYM85k822edUHD4isyhTTiP47fIJM1mjR/xzEvhbjk5vmz3dj4PyfsOPJLABiR36Wsa395J/4Cds1vbNXj08oQj1tv7f6VfKRNF889pwhta0drQ497itzhUFG3T6835eR55fyzrNdQrqxIQIAEACAGjk3mSyeY0YRGuaexpd4tCrsVgpW7fVk/LzJthLKsl1mgXmZzmHWCOB+68q/kUFykJdaa+3+mxsHzZIpFnCwBcOkwzQg7UqDykmce9CFMtyXubqcRwK3j1PNZLJtHlVcEkVQdHfktiARY7euxrqfISD/uOKett0mus2Kv3e2dNy6UHsy71uffl90ym5SZUsnXO0RGNcOxuT4sK2uFT2rdLqzXn5mYv45Vm+sVlZEIEACABADTybSpfOtdohsc49rcnxcq3FZqNu115Lz8ibYRzrJ9Q/3mfzmDUCeJH8Lyz+RTTqQj1Jv7/wCGxsFzZMpVnCwBcAmG2pA2pUI7UkjknkmxRvXL+im4zfjLhufzvNb2ospM88uY7NWSKmqQMEIAtLs2r6rMMiH2a0d8pzHhWqXCWzLMk2td0Z58HuZoF+rC9dgNiQqOiMGU2nvtIqQDp0EfdaDDbtUamUui/wBzLK8octDajqvFGQkLVFCCABAAAgDXrh2D6nAMSKKRImd1fcaMBvxJ+yyuJ3iqzyT5sf1svrK3dKGb1Z42jMekiOdowG4Ly6/ufiK8qnDh2I1VCnycFE5lDHQXDp1WXCyorBtrwz+SnYbS5S6pr55/beM3EtmlJlZyn2bR0OYAzEZDt4qW92UOwLbV48TG4jS3qa7BCUYrCEACAHW5N7xBAl5g9H7j+psPw+G7CRSq5bmWNpd7HMnpwZf3iuZBnemhOEN7hXKaA5j66SB4jvV5aYnOitl74/jsJNeyhW50Xk/BiXN3BnWHmsbEGtr2judQq4hitvLV5dq9MyvlYVloswlLgzrzzmNhjW57T3NqUTxW3jo8+xeuQRsKz1WQ6XduZAkumivER7RXKdRrGU0gHxPcqe7xOdZbK3R/JYULKFHnSeb8EROW+JklsE9E00L+u7UPhHfuGfHYzfbNPkoay17PctMPXL1HNdGPi/Y5FlC8BcAhcAvLty+d0Q/KPPyWl/j9vvlWfYvPyK++qaQ7yxtez2zMF8F2DhSuo4g9hoVpZR2lkVNWmqkHFmJT0o+DEdCiCjmmhH5oOKgNNPJmdnBwk4s51wSRVAEVXQLSyLxTEpmhRDk9U85vA4dlEqM5R0HqVxUp9FjLL8pcQDpJdjj8LizuIKeVd8UTI4jLjEJnlLiEdHLsaficX9wAQ674IJYjLhEXZ22pq0HthviEgnMwc1g2kDGmOeqj1q+zFym9yGFOtczVPPXgOEnLCExrG4NFPv2rG16sq1RzfE29vQjQpqnHgeqZHwXAPqDCL3BrRnJTlKlKrNQhqzkpKKzY4SsAQ2Bo0Bb+2oRoUo048CiqTc5OTPVPiBTvzdn1pvpoQ6Zgw67Ro+YaOGpM1ae1vWpBvLblFtR1XiZS7MohSkVQBFUARVAEVQBFUAN90LOyWmM4Z3Zm7G6+3y2qjxW5zfIx7/JeZqMDs9mLry47l2dYxKlNAC4dCiMgGOx7P9GMp3tEcB/K1+E4d8PHlJ9J+C9esqbq423sx0/JZq5IgIAEAKN7bmNmqxYNGRtOhr9+p21M1KW1vRBubNVOdHc/yZhPScSA8w4rCxw0H8zjaorTTyZTzhKDykjmquCSKoAiqAO2xpAzEUM0YuOoD8p2pi5rqjTc33dpLsrV3FZQWnHsNFYwNAAFABQDUAsnKTk3J6s3cYqKUVoiUkUfcKEXmjRUpdKjOrLZgs2JlNRWbL+zbKEPnOzu7h91qsPwmNDn1N8vBe/zKyvdOfNjoWauSICABAAgAQBxWnZUGZbkxobXjRXEbnDOEmUVLUbqUoVFlJCLa3Js4EmWigjqxMx/eMx4BMSodRXVMOesH9xWnLrTkL2pZ52tGWPpqmnTkuBElbVY6xKqLLvb7THDe0hJyGXFrVD5deyjBhVLTlvznNgNA/Naz2IVZVqmzFZpfk1+FWqoUdqXSlv7FwRfw7PiOwYe3N4pinh9zU0g+/d+SxlXpx1Z3y9hnF7uwfyrShgT1rS7l6kad6v/ACi2l5dsMUa0Dx4q9oW1KhHKnHIgzqSm85M9U+IBAAgD/9k=;" vertex="1" parent="1">
          <mxGeometry x="304" y="671" width="61" height="61" as="geometry" />
        </mxCell>
        <mxCell id="Q5dizfhmgUC72AgtRbeX-32" value="" style="shape=image;verticalLabelPosition=bottom;labelBackgroundColor=default;verticalAlign=top;aspect=fixed;imageAspect=0;image=data:image/png,iVBORw0KGgoAAAANSUhEUgAAAgAAAAIACAYAAAD0eNT6AAAEDmlDQ1BrQ0dDb2xvclNwYWNlR2VuZXJpY1JHQgAAOI2NVV1oHFUUPpu5syskzoPUpqaSDv41lLRsUtGE2uj+ZbNt3CyTbLRBkMns3Z1pJjPj/KRpKT4UQRDBqOCT4P9bwSchaqvtiy2itFCiBIMo+ND6R6HSFwnruTOzu5O4a73L3PnmnO9+595z7t4LkLgsW5beJQIsGq4t5dPis8fmxMQ6dMF90A190C0rjpUqlSYBG+PCv9rt7yDG3tf2t/f/Z+uuUEcBiN2F2Kw4yiLiZQD+FcWyXYAEQfvICddi+AnEO2ycIOISw7UAVxieD/Cyz5mRMohfRSwoqoz+xNuIB+cj9loEB3Pw2448NaitKSLLRck2q5pOI9O9g/t/tkXda8Tbg0+PszB9FN8DuPaXKnKW4YcQn1Xk3HSIry5ps8UQ/2W5aQnxIwBdu7yFcgrxPsRjVXu8HOh0qao30cArp9SZZxDfg3h1wTzKxu5E/LUxX5wKdX5SnAzmDx4A4OIqLbB69yMesE1pKojLjVdoNsfyiPi45hZmAn3uLWdpOtfQOaVmikEs7ovj8hFWpz7EV6mel0L9Xy23FMYlPYZenAx0yDB1/PX6dledmQjikjkXCxqMJS9WtfFCyH9XtSekEF+2dH+P4tzITduTygGfv58a5VCTH5PtXD7EFZiNyUDBhHnsFTBgE0SQIA9pfFtgo6cKGuhooeilaKH41eDs38Ip+f4At1Rq/sjr6NEwQqb/I/DQqsLvaFUjvAx+eWirddAJZnAj1DFJL0mSg/gcIpPkMBkhoyCSJ8lTZIxk0TpKDjXHliJzZPO50dR5ASNSnzeLvIvod0HG/mdkmOC0z8VKnzcQ2M/Yz2vKldduXjp9bleLu0ZWn7vWc+l0JGcaai10yNrUnXLP/8Jf59ewX+c3Wgz+B34Df+vbVrc16zTMVgp9um9bxEfzPU5kPqUtVWxhs6OiWTVW+gIfywB9uXi7CGcGW/zk98k/kmvJ95IfJn/j3uQ+4c5zn3Kfcd+AyF3gLnJfcl9xH3OfR2rUee80a+6vo7EK5mmXUdyfQlrYLTwoZIU9wsPCZEtP6BWGhAlhL3p2N6sTjRdduwbHsG9kq32sgBepc+xurLPW4T9URpYGJ3ym4+8zA05u44QjST8ZIoVtu3qE7fWmdn5LPdqvgcZz8Ww8BWJ8X3w0PhQ/wnCDGd+LvlHs8dRy6bLLDuKMaZ20tZrqisPJ5ONiCq8yKhYM5cCgKOu66Lsc0aYOtZdo5QCwezI4wm9J/v0X23mlZXOfBjj8Jzv3WrY5D+CsA9D7aMs2gGfjve8ArD6mePZSeCfEYt8CONWDw8FXTxrPqx/r9Vt4biXeANh8vV7/+/16ffMD1N8AuKD/A/8leAvFY9bLAAAAOGVYSWZNTQAqAAAACAABh2kABAAAAAEAAAAaAAAAAAACoAIABAAAAAEAAAIAoAMABAAAAAEAAAIAAAAAACgwl78AADlUSURBVHgB7d1rzC1Xedjx4576EOxjB1DA8UVqZezYSPkUu3JouZm6jahUfGzHdig0laIqX4BUSNimKJX6oVV8a4GGfuiXyNhAANf42GkFlSiYmIto7H5oEPUNS6ktsIGkqs9JwMeX9HngrKN95p3LWjPPmnnWWv+R1rvfvWdmzbN+6zLrnT3v3vv2sSCAAAIIIIAAAggggAACCCCAAAIIIIAAAggggAACCCCAAAIIIIAAAggggAACCCCAAAIIIIAAAggggAACCCCAAAIIIIAAAggggAACCCCAAAIIIIAAAggggAACCCCAAAIIIIAAAggggAACCCCAAAIIIIAAAggggAACCCCAAAIIIIAAAggggAACCCCAAAIIIIAAAggggAACCCCAAAIIIIAAAggggAACCCCAAAIIIIAAAggggAACCCCAAAIIIIAAAggggAACCCCAAAIIIIAAAggggAACCCCAAAIIIIAAAggggAACCCCAAAIIIIAAAggggAACCCCAAAIIIIAAAggggAACCCCAAAIIIIAAAggggAACCCCAAAIIIIAAAggggAACCCCAAAIIIIAAAggggAACCCCAAAIIIIAAAggggAACCCCAAAIIIIAAAggggAACCCCAAAIIIIAAAggggAACCCCAAAIIIIAAAggggAACCCCAAAIIIIAAAggggAACCCCAAAIIIIAAAggggAACCCCAAAIIIIAAAggggAACCCCAAAIIIIAAAggggAACCCCAAAIIIIAAAggggAACCCCAAAIIIIAAAggggAACCCCAAAIIIIAAAggggAACCCCAAAIIIIAAAggggAACCCCAAAIIIIAAAggggAACCCCAAAIIIIAAAggggAACCCCAAAIIIIAAAggggAACCCCAAAIIIIAAAggggAACCCCAAAIIIIAAAggggAACCCCAAAIIIIAAAggggAACCCCAAAIIIIAAAggggAACCCCAAAIIIIAAAggggAACCCCAAAIIIIAAAggggAACCCCAAAIIIIAAAggggAACCCCAAAIIIIAAAggggAACCCCAAAIIIIAAArECp8RuOGO702WfN0n6FUkXSbpY0mslvVqSrjsgiQWBrQSOyYH/UtL/lfQDSY8eTw/L49ck/ZUklnoEGI/qqcsaS7LJeGQ9AThLauafSLpa0mWSTpXEgkBpAtoZvyXpHkl/KEknCCzlCTAelVdnRLxXwP149BaJ+X5JL0j6axIGFbUB7Xz3SdKrWSxlCDAeMQ7Xeh5yNR69TcaDP5ZUKzblom5328AD0tb15MLiU+BtEhbjEX12t8/W/PsD0t43GY9+UQ58p6SXJdUMTNmo37428Dlp93p5mcWHAOMR/bSvn7by2qrj0a9Ln9cbp1rBpZzUdV8b+AvpA1f5OP81HQXjEf2zr3+29tqs8Wh/wtDxCtn2P0i6TdLPJezHpgjUKPBKKdR1kl4j6cuSXpLEsp4A49F61hzJv8Cs8Sj2vwAOSvn1juh/6N+BCBFYXUAnAHo14LnVj9zmARmP2qx3Sh0nED0exUwA9H/3vyDpkrhjsxUCTQr8iZT6H0n6UZOlX6/QjEfrWXOkcgWixqOpCcAZUv6vSOLkX25DIPL1BB6SQ71d0pH1DtnUkRiPmqpuCrtQYHI8+hsjB9D32A5L4uQ/gsQqBHYELpXf/7MkPuVyB8XoV8YjI0iyaUZgcjwauwlQb/jTm5xYEEAgXuD1sqn+pfrf4ndhywgBxqMIJDZBoCMwOh4NvQWg/1pzdycjniKAQJyA/gvSNZLujducrSYEGI8mgFiNwIjA4HjUNwE4WzL6jqRXjWTIKgQQGBfQz8rQL8DiewTGnabWMh5NCbEegWmB3vGo7x6A2yUvTv7ToGyBwJiAfuvlrWMbsC5KgPEoiomNEBgV6B2PulcA3iZZ6F3/LAggsFxAL729VdKDy7NqMoe3SakZj5qsegqdQWDPeNS9CVA/3/9vZTgwWSLQooBOsP+2pE+0WHiDMjMeGSCSBQLHBfaMR/pCWN4iv3w1POERAQTMBN4sOX3NLLc2MmI8aqOeKeX6AifGo917AD64fhwcEYEmBOhb6dWMWboZeyAQI3Cib4UrAK+TvZ6WdGrM3myDAAJJAi/K1udJejZpr3Y3Zjxqt+4peX6BPePRB+SYeoNArvS85P1ZSe+SdJGk0yWxILClgLZBbYvaJrVtahvN1f413/dLYokTYDyKc2KregQ2HY/0LuVcg989kvf59dQTJalUQD8x6/OScvWDr1TqlqNYjEc5VMmzJIHVxiOdeeT460e/H/2GksSJFQERuFGStl3ricBPJE/9zm6WcQHGo3Ef1rYlkH08+jXxtB7sND9O/m011JpKq50uR5+4oiakTGVhPMoES7bFCmQdjz4sLNaDnV72Z0GgZAH9HH/rfvGhkkFWip3xaCVoDlOUQLbx6BPCYDnQ6dsJ+v4FCwIlC+h9K9Zvjf1BySArxc54tBI0hylKIMt4pJ8D8EvGDIclv+8a50l2CKwt8KQc8H7jg+p/HbCMCzAejfuwtk2BLOORTgDONvbUSxUsCNQgoJNZy+UXLTOrNC/Go0orlmItFjAfj3QCcMbisE7O4OGTn/IMgWIFHjKO/Ezj/GrMjvGoxlqlTBYC5uORfhKgvs95wCK643loBz5qmB9ZIbCVwEE58BHDg2tf+znD/GrMivGoxlqlTBYC5uORTgD0BkDLRfNkQaAWAfrHujWJ97reHK0sAdP+oW8BsCCAAAIIIIBAYwJMABqrcIqLAAIIIICACjABoB0ggAACCCDQoAATgAYrnSIjgAACCCDABIA2gAACCCCAQIMCTAAarHSKjAACCCCAABMA2gACCCCAAAINCjABaLDSKTICCCCAAAJMAGgDCCCAAAIINChQ6gRAP7r4ekmflvSIJP3oYU36u752nSTLjzeW7JIW7/ElFYaNEUBgVMB7f/ce3yguK/MK6EcLWqa80e7bd40cQL9ueCrmJ2Sbq3MH05O/9/h6QualEYGpdpa6fuRQrBKBVM+p7XOjeu/v3uPLXT+15T/V3lPXF9Ph9ktN3i4ptYC3yT5rXOnwHl9tHWGt8qS2t6nt14q71ONM+aWuz+Xgvb97jy9XvdSeb2r7n9o++YQ6mWGmGphz8g+x3pIppt1svce3Gyu/xwuENmT1GH/kNre0cg755FL03t+9x5erXmrPN7Rrq8ciJgB6GWtpgQ9lbBne48tY9OqzXtruuvtXD7awgF2vpc8XhtO7u/f+7j2+XlRejBJY2h+6+y8+se7JMKoY8RvpDSz6fn73OKnPn5Q8NC/rxXt81uVtLb/Udja1fWt+qeWd8ktdn3r8qe2993fv8U35sn5cILX9T22/+MTaPcB4+Olr9W7/7jHmPr82/fCTe3iPb7IAbDAqMLetDe03ejBWmvX14G9N6r2/e4/Puj5ayy+0a5PHNW6OW1pBlpfur1waTM/+3uPrCZmXEEBgpoD3/u49vpns7JZDoIQJwCWGBb/UMK+Qlff4Qpw8IoDAcgHv/d17fMtrgBzMBE6RnPRSguWieVouRySzg0YZ6ocFnWGUV8jGe3whTh7nCXjvH/NK5Xcv797e+7v3+Py2vDIiM+0fJVwBsKyWly0zy5CX9/gyFJksEWhWwHt/9x5fsw3HquAlTAC+Z1VYyccyrxCWZZ6WeYX4eEQAATsByz5qmVcooWWelnmF+Hh0JFDCBOBhQ6+HDPMKWXmPL8TJIwIILBfw3t+9x7e8BsjBTKCECcBhs9Lu23efYV4hK+/xhTh5RACB5QLe+7v3+JbXADmYCuhNBZbJNDjJ7FRJjxvEqF8gdECS9eI9PuvytpafZd8wvYGn0orw7u29v3uPr9Jmu1qxzPuHeYYZKPRb/ZbGmeMzAEJRvccX4uQxXWBpu+vunx5BW3t0vZY+z6Hnvb97jy9HnbSS59L+0N1/8Yl1T4aZakK/1a97rNjnN2eKaTdb7/Htxsrv8QKxbSx2u/gjt7llrGPsdrkUvfd37/Hlqpfa841t97HbzT6pDh0gVwXo/Qq3Sho67tDr+k2Aa9zr4D2+XPVSe75D7Wru67V7LS3fXNeh/ZbGM7S/9/7uPb4hV14fFxhq53NfTz6hTh1oPPzlaw9JFjH3BOg2OS/7D5XEe3xDcfN6v8BUe09d338UXg0CqZ5T24d8cz167+/e48tVL7XmO9Xek9aX8EmAfRWpN7pow9YT/CWSzpOky9OS9N9gDkvSO/5fkLTF4j2+LUxKPaZ2KMvF+pMyLWPzkFeJ3t77u/f4PLS7UmIw7R+lTgBKqSziLF/AtMMJBxOA8TaB97gPa9sWMO0fa7w33nZ1UXoEEEAAAQQcCjABcFgphIQAAggggEBuASYAuYXJHwEEEEAAAYcCTAAcVgohIYAAAgggkFuACUBuYfJHAAEEEEDAoQATAIeVQkgIIIAAAgjkFmACkFuY/BFAAAEEEHAowATAYaUQEgIIIIAAArkFmADkFiZ/BBBAAAEEHAroBMD643IPOiwnISEwR+DMOTuN7HNsZB2rfibAeERLQKBfwHw80gnA0f5jzX71nNl7siMCvgSs2/IRX8VzGQ3jkctqISgHAubjUY4JwKUOoAgBAQsB67ZsfXKzKKO3PKyNrOvQmxfxtCNg3ZaP6gRAv0HPctniK3gt4ycvBIKAdVu27mshzpoerY2s67Ama8pSloB1W35aJwBPGBtcJfldYJwn2SGwtsD5csB3Gh/0ceP8asyO8ajGWqVMSwWyjEc6AXhsaWSd/fW7p2/tvMZTBEoS0K/s/YikA8ZBMwGYBmU8mjZii7YEso5HV4ilfsewdbqhrTqitBUJfChDf9D+dXlFRrmKwniUS5Z8SxXIOh6dLirHJFlPAF6SPG8sVZy4mxTQmfZNkrTtWveH5yXP0ySxjAswHo37sLYdgdXGowfF1HrAC/ndK3lzT0A7jbbUkl4ogR+WFNqt9eMDpcJsEDfj0QboHNKVwKrj0ful6NYD3m5+eoXhbknvlnSxJD4sSBBYNhXQNvgGSe+RpG0zx1Ww3T7wXjkGS5wA41GcE1vVI7DJeKSXGHQ5W9JTkvbrExYEEDAV0LcUzpX0rGmu9WbGeFRv3VKy7QVOjEf6XwC6fF/S/T/9jR8IIGAtoG+DcfKPV2U8irdiSwRSBU6MR2ECoBnovz2xIICAvQB9K90Us3Qz9kAgRuBE39qdAOiNN9+I2ZttEEAgWoB+FU110oa4ncTBEwRMBE7qV+EegJDzZfLLNyV1Xw/reUQAgXgBvQnwTZKYWMeb7W7JeLSrwe8ILBPYMx7tXgHQrL8l6XPLjsHeCCBwXOAz8sjJf35zYDyab8eeCHQF9oxHfX/pv1b2+lNJZ3X35jkCCEQL/Ei2/GVJ3PwXTda7IeNRLwsvIpAk0Dseda8AaI4/lPS+pKzZGAEEugK/LS9w8u+qpD9nPEo3Yw8EugK949H+7lbHn39HHl8jSd+DY0EAgTQBvcv2Y2m7sPWIAOPRCA6rEJgQGByP+t4CCHnp5OCPJL0jvMAjAghMCnxJttA+8+LklmyQIsB4lKLFtgj8TGB0POp7CwA4BBBAAAEEEKhcYOgtAC22XsLUz+5nQQCBeIHzZdOfl/TF+F3YMkKA8SgCiU0Q6AiMjkdDbwFcK5nw74AdSZ4ikCBwjWz7+YTt2XRYgPFo2IY1CMQI9I5HfRMA/bebb0t6XUyubIMAAr0Cvf9207slL44JMB6N6bAOgTiB3vGo7x6Aj0t+nPzjUNkKgSGBX5AVHx1ayevRAoxH0VRsiMCgQO941L0C8Kuyu35yWff1wVxZgQACgwL60ZtvlvT1wS1YMSbAeDSmwzoE0gT2jEfdE72e/N+YlidbI4DAiMDXZJ1OAljSBRiP0s3YA4ExgZPGo923AN4qe3HyH6NjHQLpAvplQJpY0gQYj9K82BqBGIGTxqPdCcAHYvZmGwQQSBagbyWT7cMs3Yw9EIgRONG3wlsAZ8teT0ka+1yAmIzZBgEE9gq8JC+dJ+mZvat4pUeA8agHhZcQMBLYMx79jmSsNwjkSs9L3p+V9C5JF0k6XRILAlsKaBvUtqhtUtumttFc7V/zfa8kljgBxqM4J7aqR2DT8ehBccw1+N0jeeunEbEg4Fng9RKcfnBPrn7wVc+FdxYb45GzCiGc1QVWG48OStFekGQ98OllhhtWZ+OACCwTuFF217Zr3R/0CsNpy0JrYm/GoyaqmUJGCmQfj66QQKwHO83vg5EFZDMEvAncJAHl6BOXeyuow3gYjxxWCiFtKpB1PPpdKZr1YKeX/VkQKFngXgneul98uGSQlWJnPFoJmsMUJZBtPLpLGCwHOr3Uqe9fsCBQsoDet2J9Y+AdJYOsFDvj0UrQHKYogSzjkX4OwAXGDIclv+8a50l2CKwt8KQc8H7jg15onF+N2TEe1VirlGmpQJbxSCcA5y6NrLO/TgBYEKhBwLotW/e1Goy7ZbA2sq7Dbrw8R2AtAeu2fK5OAPSuW8vlIcvMyAuBDQWs27J1X9uQJtuhrY2s6zBbwckYgQkB67Z8UD8J8JikUycOnLL6DNn4aMoObIuAUwE9GR0xjE372isM86sxK8ajGmuVMlkImI9HOgHQGwAtF82TBYFaBOgf69Yk3ut6c7SyBEz7h74FwIIAAggggAACjQkwAWiswikuAggggAACKsAEgHaAAAIIIIBAgwJMABqsdIqMAAIIIIAAEwDaAAIIIIAAAg0KMAFosNIpMgIIIIAAAkwAaAMIIIAAAgg0KMAEoMFKp8gIIIAAAggwAaANIIAAAggg0KBAqROAA1JX10v6tKRHJOlHD2vS3/W16yTpNlst3uPbyoXjIlCjgPf+7j2+GttEMWXSjxa0TLkLfo0cQL9ueCrmJ2Sbq3MH05O/9/h6QualEYGpdpa6fuRQrBKBVM+p7XOjeu/v3uPLXT+15T/V3lPXF9Ph9ktN3i4ptYC3yT5rXOnwHl9tHWGt8qS2t6nt14q71ONM+aWuz+Xgvb97jy9XvdSeb2r7n9o++YQ6mWGmGphz8g+x3pIppt1svce3Gyu/xwuENmT1GH/kNre0cg755FL03t+9x5erXmrPN7Rrq8ciJgB6GWtpgQ9lbBne48tY9OqzXtruuvtXD7awgF2vpc8XhtO7u/f+7j2+XlRejBJY2h+6+y8+se7JMKoY8RvpDSz6fn73OKnPn5Q8NC/rxXt81uVtLb/Udja1fWt+qeWd8ktdn3r8qe2993fv8U35sn5cILX9T22/+MTaPcB4+Olr9W7/7jHmPr82/fCTe3iPb7IAbDAqMLetDe03ejBWmvX14G9N6r2/e4/Puj5ayy+0a5PHNW6OW1pBlpfur1waTM/+3uPrCZmXEEBgpoD3/u49vpns7JZDoIQJwCWGBb/UMK+Qlff4Qpw8IoDAcgHv/d17fMtrgBzMBE6RnPRSguWieVouRySzg0YZ6ocFnWGUV8jGe3whTh7nCXjvH/NK5Xcv797e+7v3+Py2vDIiM+0fJVwBsKyWly0zy5CX9/gyFJksEWhWwHt/9x5fsw3HquAlTAC+Z1VYyccyrxCWZZ6WeYX4eEQAATsByz5qmVcooWWelnmF+Hh0JFDCBOBhQ6+HDPMKWXmPL8TJIwIILBfw3t+9x7e8BsjBTKCECcBhs9Lu23efYV4hK+/xhTh5RACB5QLe+7v3+JbXADmYCuhNBZbJNDjJ7FRJjxvEqF8gdECS9eI9PuvytpafZd8wvYGn0orw7u29v3uPr9Jmu1qxzPuHeYYZKPRb/ZbGmeMzAEJRvccX4uQxXWBpu+vunx5BW3t0vZY+z6Hnvb97jy9HnbSS59L+0N1/8Yl1T4aZakK/1a97rNjnN2eKaTdb7/Htxsrv8QKxbSx2u/gjt7llrGPsdrkUvfd37/Hlqpfa841t97HbzT6pDh0gVwXo/Qq3Sho67tDr+k2Aa9zr4D2+XPVSe75D7Wru67V7LS3fXNeh/ZbGM7S/9/7uPb4hV14fFxhq53NfTz6hTh1oPPzlaw9JFjH3BOg2OS/7D5XEe3xDcfN6v8BUe09d338UXg0CqZ5T24d8cz167+/e48tVL7XmO9Xek9aX8EmAfRWpN7pow9YT/CWSzpOky9OS9N9gDkvSO/5fkLTF4j2+LUxKPaZ2KMvF+pMyLWPzkFeJ3t77u/f4PLS7UmIw7R+lTgBKqSziLF/AtMMJBxOA8TaB97gPa9sWMO0fa7w33nZ1UXoEEEAAAQQcCjABcFgphIQAAggggEBuASYAuYXJHwEEEEAAAYcCTAAcVgohIYAAAgggkFuACUBuYfJHAAEEEEDAoQATAIeVQkgIIIAAAgjkFmACkFuY/BFAAAEEEHAowATAYaUQEgIIIIAAArkFmADkFiZ/BBBAAAEEHAroBMD643IPOiwnISEwR+DMOTuN7HNsZB2rfibAeERLQKBfwHw80gnA0f5jzX71nNl7siMCvgSs2/IRX8VzGQ3jkctqISgHAubjUY4JwKUOoAgBAQsB67ZsfXKzKKO3PKyNrOvQmxfxtCNg3ZaP6gRAv0HPctniK3gt4ycvBIKAdVu27mshzpoerY2s67Ama8pSloB1W35aJwBPGBtcJfldYJwn2SGwtsD5csB3Gh/0ceP8asyO8ajGWqVMSwWyjEc6AXhsaWSd/fW7p2/tvMZTBEoS0K/s/YikA8ZBMwGYBmU8mjZii7YEso5HV4ilfsewdbqhrTqitBUJfChDf9D+dXlFRrmKwniUS5Z8SxXIOh6dLirHJFlPAF6SPG8sVZy4mxTQmfZNkrTtWveH5yXP0ySxjAswHo37sLYdgdXGowfF1HrAC/ndK3lzT0A7jbbUkl4ogR+WFNqt9eMDpcJsEDfj0QboHNKVwKrj0ful6NYD3m5+eoXhbknvlnSxJD4sSBBYNhXQNvgGSe+RpG0zx1Ww3T7wXjkGS5wA41GcE1vVI7DJeKSXGHQ5W9JTkvbrExYEEDAV0LcUzpX0rGmu9WbGeFRv3VKy7QVOjEf6XwC6fF/S/T/9jR8IIGAtoG+DcfKPV2U8irdiSwRSBU6MR2ECoBnovz2xIICAvQB9K90Us3Qz9kAgRuBE39qdAOiNN9+I2ZttEEAgWoB+FU110oa4ncTBEwRMBE7qV+EegJDzZfLLNyV1Xw/reUQAgXgBvQnwTZKYWMeb7W7JeLSrwe8ILBPYMx7tXgHQrL8l6XPLjsHeCCBwXOAz8sjJf35zYDyab8eeCHQF9oxHfX/pv1b2+lNJZ3X35jkCCEQL/Ei2/GVJ3PwXTda7IeNRLwsvIpAk0Dseda8AaI4/lPS+pKzZGAEEugK/LS9w8u+qpD9nPEo3Yw8EugK949H+7lbHn39HHl8jSd+DY0EAgTQBvcv2Y2m7sPWIAOPRCA6rEJgQGByP+t4CCHnp5OCPJL0jvMAjAghMCnxJttA+8+LklmyQIsB4lKLFtgj8TGB0POp7CwA4BBBAAAEEEKhcYOgtAC22XsLUz+5nQQCBeIHzZdOfl/TF+F3YMkKA8SgCiU0Q6AiMjkdDbwFcK5nw74AdSZ4ikCBwjWz7+YTt2XRYgPFo2IY1CMQI9I5HfRMA/bebb0t6XUyubIMAAr0Cvf9207slL44JMB6N6bAOgTiB3vGo7x6Aj0t+nPzjUNkKgSGBX5AVHx1ayevRAoxH0VRsiMCgQO941L0C8Kuyu35yWff1wVxZgQACgwL60ZtvlvT1wS1YMSbAeDSmwzoE0gT2jEfdE72e/N+YlidbI4DAiMDXZJ1OAljSBRiP0s3YA4ExgZPGo923AN4qe3HyH6NjHQLpAvplQJpY0gQYj9K82BqBGIGTxqPdCcAHYvZmGwQQSBagbyWT7cMs3Yw9EIgRONG3wlsAZ8teT0ka+1yAmIzZBgEE9gq8JC+dJ+mZvat4pUeA8agHhZcQMBLYMx79jmSsNwjkSs9L3p+V9C5JF0k6XRILAlsKaBvUtqhtUtumttFc7V/zfa8kljgBxqM4J7aqR2DT8ehBccw1+N0jeeunEbEg4Fng9RKcfnBPrn7wVc+FdxYb45GzCiGc1QVWG48OStFekGQ98OllhhtWZ+OACCwTuFF217Zr3R/0CsNpy0JrYm/GoyaqmUJGCmQfj66QQKwHO83vg5EFZDMEvAncJAHl6BOXeyuow3gYjxxWCiFtKpB1PPpdKZr1YKeX/VkQKFngXgneul98uGSQlWJnPFoJmsMUJZBtPLpLGCwHOr3Uqe9fsCBQsoDet2J9Y+AdJYOsFDvj0UrQHKYogSzjkX4OwAXGDIclv+8a50l2CKwt8KQc8H7jg15onF+N2TEe1VirlGmpQJbxSCcA5y6NrLO/TgBYEKhBwLotW/e1Goy7ZbA2sq7Dbrw8R2AtAeu2fK5OAPSuW8vlIcvMyAuBDQWs27J1X9uQJtuhrY2s6zBbwckYgQkB67Z8UD8J8JikUycOnLL6DNn4aMoObIuAUwE9GR0xjE372isM86sxK8ajGmuVMlkImI9HOgHQGwAtF82TBYFaBOgf69Yk3ut6c7SyBEz7h74FwIIAAggggAACjQkwAWiswikuAggggAACKsAEgHaAAAIIIIBAgwJMABqsdIqMAAIIIIAAEwDaAAIIIIAAAg0KMAFosNIpMgIIIIAAAkwAaAMIIIAAAgg0KMAEoMFKp8gIIIAAAggwAaANIIAAAggg0KBAqROAA1JX10v6tKRHJOlHD2vS3/W16yTpNlst3uPbyoXjIlCjgPf+7j2+GttEMWXSjxa0TLkLfo0cQL9ueCrmJ2Sbq3MH05O/9/h6QualEYGpdpa6fuRQrBKBVM+p7XOjeu/v3uPLXT+15T/V3lPXF9Ph9ktN3i4ptYC3yT5rXOnwHl9tHWGt8qS2t6nt14q71ONM+aWuz+Xgvb97jy9XvdSeb2r7n9o++YQ6mWGmGphz8g+x3pIppt1svce3Gyu/xwuENmT1GH/kNre0cg755FL03t+9x5erXmrPN7Rrq8ciJgB6GWtpgQ9lbBne48tY9OqzXtruuvtXD7awgF2vpc8XhtO7u/f+7j2+XlRejBJY2h+6+y8+se7JMKoY8RvpDSz6fn73OKnPn5Q8NC/rxXt81uVtLb/Udja1fWt+qeWd8ktdn3r8qe2993fv8U35sn5cILX9T22/+MTaPcB4+Olr9W7/7jHmPr82/fCTe3iPb7IAbDAqMLetDe03ejBWmvX14G9N6r2/e4/Puj5ayy+0a5PHNW6OW1pBlpfur1waTM/+3uPrCZmXEEBgpoD3/u49vpns7JZDoIQJwCWGBb/UMK+Qlff4Qpw8IoDAcgHv/d17fMtrgBzMBE6RnPRSguWieVouRySzg0YZ6ocFnWGUV8jGe3whTh7nCXjvH/NK5Xcv797e+7v3+Py2vDIiM+0fJVwBsKyWly0zy5CX9/gyFJksEWhWwHt/9x5fsw3HquAlTAC+Z1VYyccyrxCWZZ6WeYX4eEQAATsByz5qmVcooWWelnmF+Hh0JFDCBOBhQ6+HDPMKWXmPL8TJIwIILBfw3t+9x7e8BsjBTKCECcBhs9Lu23efYV4hK+/xhTh5RACB5QLe+7v3+JbXADmYCuhNBZbJNDjJ7FRJjxvEqF8gdECS9eI9PuvytpafZd8wvYGn0orw7u29v3uPr9Jmu1qxzPuHeYYZKPRb/ZbGmeMzAEJRvccX4uQxXWBpu+vunx5BW3t0vZY+z6Hnvb97jy9HnbSS59L+0N1/8Yl1T4aZakK/1a97rNjnN2eKaTdb7/Htxsrv8QKxbSx2u/gjt7llrGPsdrkUvfd37/Hlqpfa841t97HbzT6pDh0gVwXo/Qq3Sho67tDr+k2Aa9zr4D2+XPVSe75D7Wru67V7LS3fXNeh/ZbGM7S/9/7uPb4hV14fFxhq53NfTz6hTh1oPPzlaw9JFjH3BOg2OS/7D5XEe3xDcfN6v8BUe09d338UXg0CqZ5T24d8cz167+/e48tVL7XmO9Xek9aX8EmAfRWpN7pow9YT/CWSzpOky9OS9N9gDkvSO/5fkLTF4j2+LUxKPaZ2KMvF+pMyLWPzkFeJ3t77u/f4PLS7UmIw7R+lTgBKqSziLF/AtMMJBxOA8TaB97gPa9sWMO0fa7w33nZ1UXoEEEAAAQQcCjABcFgphIQAAggggEBuASYAuYXJHwEEEEAAAYcCTAAcVgohIYAAAgggkFuACUBuYfJHAAEEEEDAoQATAIeVQkgIIIAAAgjkFmACkFuY/BFAAAEEEHAowATAYaUQEgIIIIAAArkFmADkFiZ/BBBAAAEEHAroBOCYcVwHjfMjOwS2EjjT+MDPG+dXY3aMRzXWKmWyEDAfj3QCcNQisp08ztn5nV8RKFnAui0fKRljpdgZj1aC5jDFCZiPRzoBsB6ULi2OlYAR6Bf4O/0vz371udl7trMj41E7dU1J0wTMxyOdAHw/LYbJrbf4Ct7JoNgAgRkC75yxz9guz4ytZN1PBRiPaAgI9AuYj0c6AXis/1izX71K9rxg9t7siIAPgfMlDOsO96iPormOgvHIdfUQ3EYCWcYjnQA8Ylwg/e7pW43zJDsE1hTQr+z9iKQDxgdlAjANyng0bcQWbQlkHY9+TSz1O4at0w1t1RGlrUjgQxn6g/avv1+RUa6iMB7lkiXfUgWyjkeniYr+e5L1BOAlyfPGUsWJu0kBnWnfJEnbrnV/+LHk+UpJLOMCjEfjPqxtR2C18eiPxdR6wAv53St5c09AO4221JJeKIEflhTarfXjl0uF2SBuxqMN0DmkK4FVx6N/IUW3HvB28zsm+d8t6d2SLpbEhwUJAsumAtoG3yDpPZK0bWob3W2z1r+/T/JniRNgPIpzYqt6BDYZj/QSgy6vk/S0JL2BjwUBBGwFXpDszpH0I9tsq82N8ajaqqVgDgROjEf6XwC6/EDSF376Gz8QQMBa4L9Khpz841UZj+Kt2BKBVIET41G4AqAZvFHSN1JzYnsEEJgUeJNs8fXJrdhgV4DxaFeD3xGwEzgxHoUrAJr1NyXpzTcsCCBgJ/DfJStO/umejEfpZuyBwJTASePR7hUA3fEtkh6Q1H1dXmJBAIFEAb2RUGfbXFlLhDu+OePRPDf2QqBPYM94tHsFQHfQKwCf6tuT1xBAIFngDtmDk38y24kdGI9OUPALAosF7pAcThqP+v7SP0s2+t+SXi2JBQEE5gn8ueym/2b4w3m7s9dxAcYjmgICywV6x6PuFQA9zLOSflOSXi5gQQCBdAHtO/9cEif/dLvuHoxHXRGeI5AmMDge7R/IR7+R6zWSLhtYz8sIIDAs8O9k1e8Pr2ZNogDjUSIYmyOwIzA4HvW9BRD2OyC//BdJ/yC8wCMCCEwKfEG2uFKSftgGi50A45GdJTm1IzA6Ho1NAJRIv5jjS5L0f3JZEEBgXOBPZPXbJR0d34y1MwUYj2bCsVuTApPjUd89ALtSfyVP3ilJM2JBAIFhgf8hq94hiZP/sNHSNYxHSwXZvxWBqPFoagKgWPoRppdL+qI+YUEAgT0CepXsCkl6py1LXgHGo7y+5F6+QPR4NHQTYJdA38+8W9KZkvTGwKm3DmQTFgSqF9C7a/+9pN+S9OPqS+ungIxHfuqCSPwIrDIeHZLy/oUkPRgJg1bbgP4l+o8lsWwrwHjEGNTqGLRb7lXHI/0Xwf8k6WVJu0HwOx61twFt83dK0q+sZfEhwHjEuFP7uDNUvk3HozdL//+KpKHgeB2bmtqAfpHG3/VxziOKHgHGI8abmsabqbK4GY/+nnTGw5KOSZoKmvUYldQGnpc2fa8kTvyCUMjCeMQYU9IYkxKr6XhkfTPfa2WA+A1JV0vSzw54hSQWBEoT+IkErF9H+3lJn5Gk76+xlCfAeFRenRHxXoFs45H1BGA39FfKE52JXyrplyRdLOksSa+SdFCSfrIXCwJbCejVqiOS/p+kZyQ9IukxSQ9L+rok7uoXhIoWxqOKKrPComwyHuWcAFRYR6sUSS8HWS7UsaUmeSHQlgDjUcX1HfNBQBUXn6IhgAACCCDQpgATgDbrnVIjgAACCDQuwASg8QZA8RFAAAEE2hRgAtBmvVNqBBBAAIHGBZgANN4AKD4CCCCAQJsCTADarHdKjQACCCDQuAATgMYbAMVHAAEEEGhTgAlAm/VOqRFAAAEEGhdgAtB4A6D4CCCAAAJtCjABaLPeKTUCCCCAQOMCTAAabwAUHwEEEECgTQEmAG3WO6VGAAEEEGhcgAlA4w2A4iOAAAIItCnABKDNeqfUCCCAAAKNCzABaLwBUHwEEEAAgTYFmAC0We+UGgEEEECgcQEmAI03AIqPAAIIINCmABOANuudUiOAAAIINC7ABKDxBkDxEUAAAQTaFGAC0Ga9U2oEEEAAgcYFmAA03gAoPgIIIIBAmwJMANqsd0qNAAIIINC4ABOAxhsAxUcAAQQQaFOACUCb9U6pEUAAAQQaF2AC0HgDoPgIIIAAAm0KMAFos94pNQIIIIBA4wJMABpvABQfAQQQQKBNASYAbdY7pUYAAQQQaFyACUDjDYDiI4AAAgi0KcAEoM16p9QIIIAAAo0LMAFovAFQfAQQQACBNgWYALRZ75QaAQQQQKBxASYAjTcAio8AAggg0KYAE4A2651SI4AAAgg0LsAEoPEGQPERQAABBNoUYALQZr1TagQQQACBxgWYADTeACg+AggggECbAkwA2qx3So0AAggg0LgAE4DGGwDFRwABBBBoU4AJQJv1Tqm3FThVDn+9pE9JekzS0eNJf/+kpOsk6Ta1LK2Vt5Z6oxwIILCywF/L8SzTyuFzuAmBq2X9E5Km6vhx2eaqibxKWN1aeUuok5QYp9pp6vqUY7MtAs0JpHaoqe2bA3RaYL3adoukqfrqrtd9SrxS11p5nTa7xWF12+PS54sDIgMEahZY2sG6+9dsVVLZbpVgu3UT+/wPZd+/WVBh9eR/h6TY8nW3u7mgstYeardulj6v3YvyIbBIYGkH6+6/KBh2NhG4RnLp1kvq809IHvtNosmbicaosaaWb3f7l2X/Gt7+yCu9Tu679WLx+zpRcxQEChWw6GS7eRTKUE3YegNczHv+u3U29Lv3KwFL//LfLfeT4nagmlZQbkF268Ti93IliByBFQQsOtluHiuEzCFGBH5D1u3Wx9LfvV4JsPjLv2uj/w3Bsq1At06WPt+2NBwdAecCSztYd3/nxa0+vE9LCbt1svS5tysBln/579rcVX3r8F/A3fqw+N1/iYkQgQ0FLDrZbh4bFoVDi4D+O99ufVj97uVKQI6//IPRo7SgzQVCXVg9bl4gAkDAs4BVRwv5eC5rC7Hph/yEurB+3PpKQK6//IPTkRYaiPMyhrqwenReXMJDYFsBq44W8tm2NBxdT2KhLnI8bjUJyH3yV6vnaD6bC1i32c0LRAAIeBagw3munfTYcr0FsNtO1n47IOdl/91y8RZAenuz3mO3Pix+t46P/BCoSsCik+3mURVOgYXRz/bfrY9cv691JWCNv/yDkU5sWLYVCHVh9bhtaTg6As4FrDpayMd5casPT7/0J9RF7sfcVwLW+ss/OF1bfevwX8BQF1aP/ktMhAhsKGDV0UI+GxaFQ4uAfhDQGm8DhPrOdSVAT/53SArHyf2o34yodizbCljX87al4egIOBegwzmvoBnh6cfaWtfrWH7WVwLW/stfPwr40AxndrEXGGtnc9bZR0iOCFQkMKdTje1TEU3RRZnzTYBj9Tq17jOiZfEFQmuf/LVcv1d0TdcV/FQ7S11flw6lQcBYILVDTW1vHB7ZzRTQm+f0L/Op+rJcv/RKwBYnf41ZrVh8CFi2R82LBQEERgTocCM4ha9a8w760I7mXgnY4uSv9y/ocVn8CIR2ZPXop2REgoBDAauOFvJxWMSmQyphEsDJv+kmelLhwzhi9XhS5jxBAIGTBaw6Wsjn5Nx55kHA8ySAk7+HFuInhjCOWD36KRmRIOBQwKqjhXwcFpGQRMDjJICTP02zKxDGEavHbv48RwCBHQGrjhby2cmaX50JeJoEcPJ31jichBPGEatHJ8UiDAR8Clh1tJCPz1ISVRDwMAng5B9qg8euQBhHrB67+fMcAQR2BKw6WshnJ2t+dSqw5SSAk7/TRuEkrDCOWD06KRZhIOBTwKqjhXx8lpKougJbnIjvlCA0hbayxuPSzybouvE8r4B1m8gbLbkjULgAHa7wClwQ/hZXAqzb21h+/J//gsax0a5j9Tln3UbF4LAIlCEwp1ON7VNGqYkyCNQ6CeDkH2q4rMexsWXOurJKT7QIrCwwp1ON7bNy+BzOQKC2SQAnf4NGsVEWY2PLnHUbFYPDIlCGwJxONbZPGaUmyq5ALZMAPflbfClR14fn6wiMjS1z1q0TNUeJEqBjRjGtutExOdoBwyNqJ2WJF/hL2fRpSf9T0uHjSetk7UW/Eve3jh/0n619cKPj6fcQ/FNJLxrll5qN9iP9KuYrJf2KpPMknS6JZRuB57c5LEdFoByBP5dQ58ys2SeP2xNSH1dv2HxKvRKw9V/+10idfZe+5Gos+eGG/YhDI1CEwLclSk7m/gxuk3rRk/EWS2mTgC1P/vrvlLdLog/5M/hfW3QejolASQL3SLAMXj4NbtmwIZUyCdjy5K/Vw8nfZ9/RMe1zG/YfDo1AEQL/UqJkAuDX4NCGrcj7JGDrk79e9qfv+DW4acO+w6ERKELgMomSQcyvweNSP5Y3aaY2Sq+TgK1P/lonvOfvt9/omHZpamNnewRaE9AB/ilJTAL8Gly7caP0NgnY+uSv1XE9fcb1mPFnUj/ablkcCVAhjirjeCj67193+QuLiHYE9N/KtlzCvwjq5+pvvWz9r36h/FvXSYiDx34BHdO03bIggMCEgP6/8k8kcRXAp8EjE/W31uqtrwR4+Ms/WD9Gf3E7XuhYdk6oKB4RQGBa4D/KJkwAfBo8N119q22x1STA08lfsbVO6C8+DT62Wm/gQEkCvAWQxLXqxv9KjsYHZ6xKHn0wPdF4WU6RQDStvWxxzLEyeotnLNaW1v1ACvuvWyowZUXASuA6yYi/avwZeHkLQD/05hMbthF9/9/Lx4k/uqEDfXS4j275KZrSJFgQKFvg4xI+A4wvg086aFJbn/xDm/QyCfg0/cTdOPFRB/2EEBAoWkD/wrpfUhhwedze4tc3blFeTv6hLXqYBHC1bPt+EdqDPuoXaWk7ZUEAgYUCr5T9mQT4GOD0g4BOXVifS3b3dvIPg/7WkwD9ICD94qYQD4/bWejJX8csFgQQMBLQKwG/L4mBbVuDLf/f3OvJP7TJrScB+n5ziIXHbSz0jn/+8hcEFgRyCOjl52clMcCtb7DllwF5P/mH9rj1JEC/tTHEwuN6Fs+IOzf8CQILArkFXi0H0KsBfFjQegOcnvy3+rfZUk7+4YS75SRA6+hWSSEWHvNa/Fis9a/+V0liQQCBFQX007X+raT/I4mBLo+BvufPZf902y0nAVJl+w5J0rqjX+Qx+DOx/TeSzpbEUqgAH55RaMV1wta/evSbtt4u6RJJF0k6V9JBSVt+c50cvrjlqET8tKSHJenNTPdJekHSFov+5f8Hkn5zi4MbHPOzksd7JL1okNecLPRmTZ0I6ARO+4V+xLb2CZZ4gWOyaegT+nHLD0n6siTtH3y2vyCwIIAAAtYCpV32H/pLe+srAdb1Qn4IIIAAAghkE9ArOlt+wt/QyXzu60wCsjUVMkYAAQQQqEVAT/53SJp7svW6n7cvD6qlvVAOBBBAAIEKBGo9+YdJCZOAChopRUAAAQQQsBXY4j3/O6UImsIJeo1HfWtDy8qCAAIIIIBA8wJb/OUf/hrf8tjNVzwACCCAAALtCng4AXuIod0WQMkRQAABBJoT8HTi9RRLcw2BAiOAAAIItCPg8YTrMaZ2WgQlRQABBBCoXsDzidZzbNU3DAqIAAIIIFCvQAkn2BJirLeFUDIEEEAAgeoESjqxlhRrdQ2FAiGAAAII1COgJ9S1P9536f/cb/HZBBqzWrEggAACCCBQhcAtUoo1PmgnHCP8n/9SvC2uBNy8NGj2RwABBBBAwIPA1RJEODGv8bj0L/+u2dpXAvRrZq/qBsFzBBBAAAEEShLQ76R/QtIaJ349htVf/l3jta8EPCkBHOgGwXMEEEAAAQRKEbheAl3r5G/9l3/XeO0rAdd1A+A5AggggAACpQh8SgJdYwKgf/mv8SU7a14JuKuUSiZOBBBAAAEEugKPywu5JwC5//LvlmmtKwGPdg/McwQQQAABBEoROCqB5pwArPWXf9d7jSsBR7oH5TkCCCCAAAKlCOhJLNcEYKuTf7DPPQl4LhyIRwQQQAABBEoTyPUWwNqX/Yfcc74dwFsAQ+q8jgACCCDgXuCTEqH1FYCt//Lvoue6EqCTHBYEEEAAAQSKFLD+N0Avf/l3KyPHlYBruwfhOQIIIIAAAqUI6AcBWb0N4O0v/24dWF4JeEwyVzsWBBBAAAEEihXQj7Vd+jaA17/8u5VicSVAPwr4UDdjniOAAAIIIFCiwJIvA/L+l3+3PpZeCfi9boY8RwABBBBAoFQBPSnqt9ylXAnQv4R1H923tKW18pZWP8SLAAIIILCygL4dEHNPgL4HfuXKseU4XGvlzWFInggggAAClQjozW36RTd3SXpEkn5aoCb9/U5Jevd7TTfAtVZeqT4WBBBAAAEEEEAAAQQQQAABBBBAAAEEEEAAAQQQQAABBBBAAAEEEEAAAQQQQAABBBBAAAEEEEAAAQQQQAABBBBAAAEEEEAAAQQQQAABBBBAAAEEEEAAAQQQQAABBBBAAAEEEEAAAQQQQAABBBBAAAEEEEAAAQQQQAABBBBAAAEEEEAAAQQQQAABBBBAAAEEEEAAAQQQQAABBBBAAAEEEEAAAQQQQAABBBBAAAEEEEAAAQQQQAABBBBAAAEEEEAAAQQQQAABBBBAAAEEEEAAAQQQQAABBBBAAAEEEEAAAQQQQAABBBBAAAEEEEAAAQQQQAABBBBAAAEEEEAAAQQQQAABBBBAAAEEEEAAAQQQQAABBBBAAAEEEEAAAQQQQAABBBBAAAEEEEAAAQQQQAABBBBAAAEEEEAAAQQQQAABBBBAAAEEEEAAAQQQQAABBBBAAAEEEEAAAQQQQAABBBBAAAEEEEAAAQQQQAABBBBAAAEEEEAAAQQQQAABBBBAAAEEEEAAAQQQQAABBBBAAAEEEEAAAQQQQAABBBBAAAEEEEAAAQQQQAABBBBAAAEEEEAAAQQQQAABBBBAAAEEEEAAAQQQQAABBBBAAAEEEEAAAQQQQAABBBBAAAEEEEAAAQQQQAABBBBAAAEEEEAAAQQQQAABBBBAAAEEEEAAAQQQQAABBBBAAAEEEEAAAQQQQAABBBBAAAEEEEAAAQQQQAABBBBAAAEEEEAAAQQQQAABBBBAAAEEEEAAAQQQQAABBBBAAAEEEEAAAQQQQAABBBBAAAEEEEAAAQQQQAABBBBAAAEEEEAAAQQQQAABBBBAAAEEEEAAAQQQQAABBBBAAAEEEEAAAQQQQAABBBBAAAEEEEAAAQRqEvj/5ppLRA0mcZIAAAAASUVORK5CYII=;" vertex="1" parent="1">
          <mxGeometry x="-11" y="297" width="46" height="46" as="geometry" />
        </mxCell>
        <mxCell id="Q5dizfhmgUC72AgtRbeX-35" value="" style="shape=image;verticalLabelPosition=bottom;labelBackgroundColor=default;verticalAlign=top;aspect=fixed;imageAspect=0;image=data:image/png,iVBORw0KGgoAAAANSUhEUgAAAgAAAAIACAYAAAD0eNT6AAAEDmlDQ1BrQ0dDb2xvclNwYWNlR2VuZXJpY1JHQgAAOI2NVV1oHFUUPpu5syskzoPUpqaSDv41lLRsUtGE2uj+ZbNt3CyTbLRBkMns3Z1pJjPj/KRpKT4UQRDBqOCT4P9bwSchaqvtiy2itFCiBIMo+ND6R6HSFwnruTOzu5O4a73L3PnmnO9+595z7t4LkLgsW5beJQIsGq4t5dPis8fmxMQ6dMF90A190C0rjpUqlSYBG+PCv9rt7yDG3tf2t/f/Z+uuUEcBiN2F2Kw4yiLiZQD+FcWyXYAEQfvICddi+AnEO2ycIOISw7UAVxieD/Cyz5mRMohfRSwoqoz+xNuIB+cj9loEB3Pw2448NaitKSLLRck2q5pOI9O9g/t/tkXda8Tbg0+PszB9FN8DuPaXKnKW4YcQn1Xk3HSIry5ps8UQ/2W5aQnxIwBdu7yFcgrxPsRjVXu8HOh0qao30cArp9SZZxDfg3h1wTzKxu5E/LUxX5wKdX5SnAzmDx4A4OIqLbB69yMesE1pKojLjVdoNsfyiPi45hZmAn3uLWdpOtfQOaVmikEs7ovj8hFWpz7EV6mel0L9Xy23FMYlPYZenAx0yDB1/PX6dledmQjikjkXCxqMJS9WtfFCyH9XtSekEF+2dH+P4tzITduTygGfv58a5VCTH5PtXD7EFZiNyUDBhHnsFTBgE0SQIA9pfFtgo6cKGuhooeilaKH41eDs38Ip+f4At1Rq/sjr6NEwQqb/I/DQqsLvaFUjvAx+eWirddAJZnAj1DFJL0mSg/gcIpPkMBkhoyCSJ8lTZIxk0TpKDjXHliJzZPO50dR5ASNSnzeLvIvod0HG/mdkmOC0z8VKnzcQ2M/Yz2vKldduXjp9bleLu0ZWn7vWc+l0JGcaai10yNrUnXLP/8Jf59ewX+c3Wgz+B34Df+vbVrc16zTMVgp9um9bxEfzPU5kPqUtVWxhs6OiWTVW+gIfywB9uXi7CGcGW/zk98k/kmvJ95IfJn/j3uQ+4c5zn3Kfcd+AyF3gLnJfcl9xH3OfR2rUee80a+6vo7EK5mmXUdyfQlrYLTwoZIU9wsPCZEtP6BWGhAlhL3p2N6sTjRdduwbHsG9kq32sgBepc+xurLPW4T9URpYGJ3ym4+8zA05u44QjST8ZIoVtu3qE7fWmdn5LPdqvgcZz8Ww8BWJ8X3w0PhQ/wnCDGd+LvlHs8dRy6bLLDuKMaZ20tZrqisPJ5ONiCq8yKhYM5cCgKOu66Lsc0aYOtZdo5QCwezI4wm9J/v0X23mlZXOfBjj8Jzv3WrY5D+CsA9D7aMs2gGfjve8ArD6mePZSeCfEYt8CONWDw8FXTxrPqx/r9Vt4biXeANh8vV7/+/16ffMD1N8AuKD/A/8leAvFY9bLAAAAOGVYSWZNTQAqAAAACAABh2kABAAAAAEAAAAaAAAAAAACoAIABAAAAAEAAAIAoAMABAAAAAEAAAIAAAAAACgwl78AADlUSURBVHgB7d1rzC1Xedjx4576EOxjB1DA8UVqZezYSPkUu3JouZm6jahUfGzHdig0laIqX4BUSNimKJX6oVV8a4GGfuiXyNhAANf42GkFlSiYmIto7H5oEPUNS6ktsIGkqs9JwMeX9HngrKN95p3LWjPPmnnWWv+R1rvfvWdmzbN+6zLrnT3v3vv2sSCAAAIIIIAAAggggAACCCCAAAIIIIAAAggggAACCCCAAAIIIIAAAggggAACCCCAAAIIIIAAAggggAACCCCAAAIIIIAAAggggAACCCCAAAIIIIAAAggggAACCCCAAAIIIIAAAggggAACCCCAAAIIIIAAAggggAACCCCAAAIIIIAAAggggAACCCCAAAIIIIAAAggggAACCCCAAAIIIIAAAggggAACCCCAAAIIIIAAAggggAACCCCAAAIIIIAAAggggAACCCCAAAIIIIAAAggggAACCCCAAAIIIIAAAggggAACCCCAAAIIIIAAAggggAACCCCAAAIIIIAAAggggAACCCCAAAIIIIAAAggggAACCCCAAAIIIIAAAggggAACCCCAAAIIIIAAAggggAACCCCAAAIIIIAAAggggAACCCCAAAIIIIAAAggggAACCCCAAAIIIIAAAggggAACCCCAAAIIIIAAAggggAACCCCAAAIIIIAAAggggAACCCCAAAIIIIAAAggggAACCCCAAAIIIIAAAggggAACCCCAAAIIIIAAAggggAACCCCAAAIIIIAAAggggAACCCCAAAIIIIAAAggggAACCCCAAAIIIIAAAggggAACCCCAAAIIIIAAAggggAACCCCAAAIIIIAAAggggAACCCCAAAIIIIAAAggggAACCCCAAAIIIIAAAggggAACCCCAAAIIIIAAAggggAACCCCAAAIIIIAAAggggAACCCCAAAIIIIAAAggggAACCCCAAAIIIIAAAggggAACCCCAAAIIIIAAAggggAACCCCAAAIIIIAAAggggAACCCCAAAIIIIAAAggggAACCCCAAAIIIIAAAggggAACCCCAAAIIIIAAArECp8RuOGO702WfN0n6FUkXSbpY0mslvVqSrjsgiQWBrQSOyYH/UtL/lfQDSY8eTw/L49ck/ZUklnoEGI/qqcsaS7LJeGQ9AThLauafSLpa0mWSTpXEgkBpAtoZvyXpHkl/KEknCCzlCTAelVdnRLxXwP149BaJ+X5JL0j6axIGFbUB7Xz3SdKrWSxlCDAeMQ7Xeh5yNR69TcaDP5ZUKzblom5328AD0tb15MLiU+BtEhbjEX12t8/W/PsD0t43GY9+UQ58p6SXJdUMTNmo37428Dlp93p5mcWHAOMR/bSvn7by2qrj0a9Ln9cbp1rBpZzUdV8b+AvpA1f5OP81HQXjEf2zr3+29tqs8Wh/wtDxCtn2P0i6TdLPJezHpgjUKPBKKdR1kl4j6cuSXpLEsp4A49F61hzJv8Cs8Sj2vwAOSvn1juh/6N+BCBFYXUAnAHo14LnVj9zmARmP2qx3Sh0nED0exUwA9H/3vyDpkrhjsxUCTQr8iZT6H0n6UZOlX6/QjEfrWXOkcgWixqOpCcAZUv6vSOLkX25DIPL1BB6SQ71d0pH1DtnUkRiPmqpuCrtQYHI8+hsjB9D32A5L4uQ/gsQqBHYELpXf/7MkPuVyB8XoV8YjI0iyaUZgcjwauwlQb/jTm5xYEEAgXuD1sqn+pfrf4ndhywgBxqMIJDZBoCMwOh4NvQWg/1pzdycjniKAQJyA/gvSNZLujducrSYEGI8mgFiNwIjA4HjUNwE4WzL6jqRXjWTIKgQQGBfQz8rQL8DiewTGnabWMh5NCbEegWmB3vGo7x6A2yUvTv7ToGyBwJiAfuvlrWMbsC5KgPEoiomNEBgV6B2PulcA3iZZ6F3/LAggsFxAL729VdKDy7NqMoe3SakZj5qsegqdQWDPeNS9CVA/3/9vZTgwWSLQooBOsP+2pE+0WHiDMjMeGSCSBQLHBfaMR/pCWN4iv3w1POERAQTMBN4sOX3NLLc2MmI8aqOeKeX6AifGo917AD64fhwcEYEmBOhb6dWMWboZeyAQI3Cib4UrAK+TvZ6WdGrM3myDAAJJAi/K1udJejZpr3Y3Zjxqt+4peX6BPePRB+SYeoNArvS85P1ZSe+SdJGk0yWxILClgLZBbYvaJrVtahvN1f413/dLYokTYDyKc2KregQ2HY/0LuVcg989kvf59dQTJalUQD8x6/OScvWDr1TqlqNYjEc5VMmzJIHVxiOdeeT460e/H/2GksSJFQERuFGStl3ricBPJE/9zm6WcQHGo3Ef1rYlkH08+jXxtB7sND9O/m011JpKq50uR5+4oiakTGVhPMoES7bFCmQdjz4sLNaDnV72Z0GgZAH9HH/rfvGhkkFWip3xaCVoDlOUQLbx6BPCYDnQ6dsJ+v4FCwIlC+h9K9Zvjf1BySArxc54tBI0hylKIMt4pJ8D8EvGDIclv+8a50l2CKwt8KQc8H7jg+p/HbCMCzAejfuwtk2BLOORTgDONvbUSxUsCNQgoJNZy+UXLTOrNC/Go0orlmItFjAfj3QCcMbisE7O4OGTn/IMgWIFHjKO/Ezj/GrMjvGoxlqlTBYC5uORfhKgvs95wCK643loBz5qmB9ZIbCVwEE58BHDg2tf+znD/GrMivGoxlqlTBYC5uORTgD0BkDLRfNkQaAWAfrHujWJ97reHK0sAdP+oW8BsCCAAAIIIIBAYwJMABqrcIqLAAIIIICACjABoB0ggAACCCDQoAATgAYrnSIjgAACCCDABIA2gAACCCCAQIMCTAAarHSKjAACCCCAABMA2gACCCCAAAINCjABaLDSKTICCCCAAAJMAGgDCCCAAAIINChQ6gRAP7r4ekmflvSIJP3oYU36u752nSTLjzeW7JIW7/ElFYaNEUBgVMB7f/ce3yguK/MK6EcLWqa80e7bd40cQL9ueCrmJ2Sbq3MH05O/9/h6QualEYGpdpa6fuRQrBKBVM+p7XOjeu/v3uPLXT+15T/V3lPXF9Ph9ktN3i4ptYC3yT5rXOnwHl9tHWGt8qS2t6nt14q71ONM+aWuz+Xgvb97jy9XvdSeb2r7n9o++YQ6mWGmGphz8g+x3pIppt1svce3Gyu/xwuENmT1GH/kNre0cg755FL03t+9x5erXmrPN7Rrq8ciJgB6GWtpgQ9lbBne48tY9OqzXtruuvtXD7awgF2vpc8XhtO7u/f+7j2+XlRejBJY2h+6+y8+se7JMKoY8RvpDSz6fn73OKnPn5Q8NC/rxXt81uVtLb/Udja1fWt+qeWd8ktdn3r8qe2993fv8U35sn5cILX9T22/+MTaPcB4+Olr9W7/7jHmPr82/fCTe3iPb7IAbDAqMLetDe03ejBWmvX14G9N6r2/e4/Puj5ayy+0a5PHNW6OW1pBlpfur1waTM/+3uPrCZmXEEBgpoD3/u49vpns7JZDoIQJwCWGBb/UMK+Qlff4Qpw8IoDAcgHv/d17fMtrgBzMBE6RnPRSguWieVouRySzg0YZ6ocFnWGUV8jGe3whTh7nCXjvH/NK5Xcv797e+7v3+Py2vDIiM+0fJVwBsKyWly0zy5CX9/gyFJksEWhWwHt/9x5fsw3HquAlTAC+Z1VYyccyrxCWZZ6WeYX4eEQAATsByz5qmVcooWWelnmF+Hh0JFDCBOBhQ6+HDPMKWXmPL8TJIwIILBfw3t+9x7e8BsjBTKCECcBhs9Lu23efYV4hK+/xhTh5RACB5QLe+7v3+JbXADmYCuhNBZbJNDjJ7FRJjxvEqF8gdECS9eI9PuvytpafZd8wvYGn0orw7u29v3uPr9Jmu1qxzPuHeYYZKPRb/ZbGmeMzAEJRvccX4uQxXWBpu+vunx5BW3t0vZY+z6Hnvb97jy9HnbSS59L+0N1/8Yl1T4aZakK/1a97rNjnN2eKaTdb7/Htxsrv8QKxbSx2u/gjt7llrGPsdrkUvfd37/Hlqpfa841t97HbzT6pDh0gVwXo/Qq3Sho67tDr+k2Aa9zr4D2+XPVSe75D7Wru67V7LS3fXNeh/ZbGM7S/9/7uPb4hV14fFxhq53NfTz6hTh1oPPzlaw9JFjH3BOg2OS/7D5XEe3xDcfN6v8BUe09d338UXg0CqZ5T24d8cz167+/e48tVL7XmO9Xek9aX8EmAfRWpN7pow9YT/CWSzpOky9OS9N9gDkvSO/5fkLTF4j2+LUxKPaZ2KMvF+pMyLWPzkFeJ3t77u/f4PLS7UmIw7R+lTgBKqSziLF/AtMMJBxOA8TaB97gPa9sWMO0fa7w33nZ1UXoEEEAAAQQcCjABcFgphIQAAggggEBuASYAuYXJHwEEEEAAAYcCTAAcVgohIYAAAgggkFuACUBuYfJHAAEEEEDAoQATAIeVQkgIIIAAAgjkFmACkFuY/BFAAAEEEHAowATAYaUQEgIIIIAAArkFmADkFiZ/BBBAAAEEHAroBMD643IPOiwnISEwR+DMOTuN7HNsZB2rfibAeERLQKBfwHw80gnA0f5jzX71nNl7siMCvgSs2/IRX8VzGQ3jkctqISgHAubjUY4JwKUOoAgBAQsB67ZsfXKzKKO3PKyNrOvQmxfxtCNg3ZaP6gRAv0HPctniK3gt4ycvBIKAdVu27mshzpoerY2s67Ama8pSloB1W35aJwBPGBtcJfldYJwn2SGwtsD5csB3Gh/0ceP8asyO8ajGWqVMSwWyjEc6AXhsaWSd/fW7p2/tvMZTBEoS0K/s/YikA8ZBMwGYBmU8mjZii7YEso5HV4ilfsewdbqhrTqitBUJfChDf9D+dXlFRrmKwniUS5Z8SxXIOh6dLirHJFlPAF6SPG8sVZy4mxTQmfZNkrTtWveH5yXP0ySxjAswHo37sLYdgdXGowfF1HrAC/ndK3lzT0A7jbbUkl4ogR+WFNqt9eMDpcJsEDfj0QboHNKVwKrj0ful6NYD3m5+eoXhbknvlnSxJD4sSBBYNhXQNvgGSe+RpG0zx1Ww3T7wXjkGS5wA41GcE1vVI7DJeKSXGHQ5W9JTkvbrExYEEDAV0LcUzpX0rGmu9WbGeFRv3VKy7QVOjEf6XwC6fF/S/T/9jR8IIGAtoG+DcfKPV2U8irdiSwRSBU6MR2ECoBnovz2xIICAvQB9K90Us3Qz9kAgRuBE39qdAOiNN9+I2ZttEEAgWoB+FU110oa4ncTBEwRMBE7qV+EegJDzZfLLNyV1Xw/reUQAgXgBvQnwTZKYWMeb7W7JeLSrwe8ILBPYMx7tXgHQrL8l6XPLjsHeCCBwXOAz8sjJf35zYDyab8eeCHQF9oxHfX/pv1b2+lNJZ3X35jkCCEQL/Ei2/GVJ3PwXTda7IeNRLwsvIpAk0Dseda8AaI4/lPS+pKzZGAEEugK/LS9w8u+qpD9nPEo3Yw8EugK949H+7lbHn39HHl8jSd+DY0EAgTQBvcv2Y2m7sPWIAOPRCA6rEJgQGByP+t4CCHnp5OCPJL0jvMAjAghMCnxJttA+8+LklmyQIsB4lKLFtgj8TGB0POp7CwA4BBBAAAEEEKhcYOgtAC22XsLUz+5nQQCBeIHzZdOfl/TF+F3YMkKA8SgCiU0Q6AiMjkdDbwFcK5nw74AdSZ4ikCBwjWz7+YTt2XRYgPFo2IY1CMQI9I5HfRMA/bebb0t6XUyubIMAAr0Cvf9207slL44JMB6N6bAOgTiB3vGo7x6Aj0t+nPzjUNkKgSGBX5AVHx1ayevRAoxH0VRsiMCgQO941L0C8Kuyu35yWff1wVxZgQACgwL60ZtvlvT1wS1YMSbAeDSmwzoE0gT2jEfdE72e/N+YlidbI4DAiMDXZJ1OAljSBRiP0s3YA4ExgZPGo923AN4qe3HyH6NjHQLpAvplQJpY0gQYj9K82BqBGIGTxqPdCcAHYvZmGwQQSBagbyWT7cMs3Yw9EIgRONG3wlsAZ8teT0ka+1yAmIzZBgEE9gq8JC+dJ+mZvat4pUeA8agHhZcQMBLYMx79jmSsNwjkSs9L3p+V9C5JF0k6XRILAlsKaBvUtqhtUtumttFc7V/zfa8kljgBxqM4J7aqR2DT8ehBccw1+N0jeeunEbEg4Fng9RKcfnBPrn7wVc+FdxYb45GzCiGc1QVWG48OStFekGQ98OllhhtWZ+OACCwTuFF217Zr3R/0CsNpy0JrYm/GoyaqmUJGCmQfj66QQKwHO83vg5EFZDMEvAncJAHl6BOXeyuow3gYjxxWCiFtKpB1PPpdKZr1YKeX/VkQKFngXgneul98uGSQlWJnPFoJmsMUJZBtPLpLGCwHOr3Uqe9fsCBQsoDet2J9Y+AdJYOsFDvj0UrQHKYogSzjkX4OwAXGDIclv+8a50l2CKwt8KQc8H7jg15onF+N2TEe1VirlGmpQJbxSCcA5y6NrLO/TgBYEKhBwLotW/e1Goy7ZbA2sq7Dbrw8R2AtAeu2fK5OAPSuW8vlIcvMyAuBDQWs27J1X9uQJtuhrY2s6zBbwckYgQkB67Z8UD8J8JikUycOnLL6DNn4aMoObIuAUwE9GR0xjE372isM86sxK8ajGmuVMlkImI9HOgHQGwAtF82TBYFaBOgf69Yk3ut6c7SyBEz7h74FwIIAAggggAACjQkwAWiswikuAggggAACKsAEgHaAAAIIIIBAgwJMABqsdIqMAAIIIIAAEwDaAAIIIIAAAg0KMAFosNIpMgIIIIAAAkwAaAMIIIAAAgg0KMAEoMFKp8gIIIAAAggwAaANIIAAAggg0KBAqROAA1JX10v6tKRHJOlHD2vS3/W16yTpNlst3uPbyoXjIlCjgPf+7j2+GttEMWXSjxa0TLkLfo0cQL9ueCrmJ2Sbq3MH05O/9/h6QualEYGpdpa6fuRQrBKBVM+p7XOjeu/v3uPLXT+15T/V3lPXF9Ph9ktN3i4ptYC3yT5rXOnwHl9tHWGt8qS2t6nt14q71ONM+aWuz+Xgvb97jy9XvdSeb2r7n9o++YQ6mWGmGphz8g+x3pIppt1svce3Gyu/xwuENmT1GH/kNre0cg755FL03t+9x5erXmrPN7Rrq8ciJgB6GWtpgQ9lbBne48tY9OqzXtruuvtXD7awgF2vpc8XhtO7u/f+7j2+XlRejBJY2h+6+y8+se7JMKoY8RvpDSz6fn73OKnPn5Q8NC/rxXt81uVtLb/Udja1fWt+qeWd8ktdn3r8qe2993fv8U35sn5cILX9T22/+MTaPcB4+Olr9W7/7jHmPr82/fCTe3iPb7IAbDAqMLetDe03ejBWmvX14G9N6r2/e4/Puj5ayy+0a5PHNW6OW1pBlpfur1waTM/+3uPrCZmXEEBgpoD3/u49vpns7JZDoIQJwCWGBb/UMK+Qlff4Qpw8IoDAcgHv/d17fMtrgBzMBE6RnPRSguWieVouRySzg0YZ6ocFnWGUV8jGe3whTh7nCXjvH/NK5Xcv797e+7v3+Py2vDIiM+0fJVwBsKyWly0zy5CX9/gyFJksEWhWwHt/9x5fsw3HquAlTAC+Z1VYyccyrxCWZZ6WeYX4eEQAATsByz5qmVcooWWelnmF+Hh0JFDCBOBhQ6+HDPMKWXmPL8TJIwIILBfw3t+9x7e8BsjBTKCECcBhs9Lu23efYV4hK+/xhTh5RACB5QLe+7v3+JbXADmYCuhNBZbJNDjJ7FRJjxvEqF8gdECS9eI9PuvytpafZd8wvYGn0orw7u29v3uPr9Jmu1qxzPuHeYYZKPRb/ZbGmeMzAEJRvccX4uQxXWBpu+vunx5BW3t0vZY+z6Hnvb97jy9HnbSS59L+0N1/8Yl1T4aZakK/1a97rNjnN2eKaTdb7/Htxsrv8QKxbSx2u/gjt7llrGPsdrkUvfd37/Hlqpfa841t97HbzT6pDh0gVwXo/Qq3Sho67tDr+k2Aa9zr4D2+XPVSe75D7Wru67V7LS3fXNeh/ZbGM7S/9/7uPb4hV14fFxhq53NfTz6hTh1oPPzlaw9JFjH3BOg2OS/7D5XEe3xDcfN6v8BUe09d338UXg0CqZ5T24d8cz167+/e48tVL7XmO9Xek9aX8EmAfRWpN7pow9YT/CWSzpOky9OS9N9gDkvSO/5fkLTF4j2+LUxKPaZ2KMvF+pMyLWPzkFeJ3t77u/f4PLS7UmIw7R+lTgBKqSziLF/AtMMJBxOA8TaB97gPa9sWMO0fa7w33nZ1UXoEEEAAAQQcCjABcFgphIQAAggggEBuASYAuYXJHwEEEEAAAYcCTAAcVgohIYAAAgggkFuACUBuYfJHAAEEEEDAoQATAIeVQkgIIIAAAgjkFmACkFuY/BFAAAEEEHAowATAYaUQEgIIIIAAArkFmADkFiZ/BBBAAAEEHAroBMD643IPOiwnISEwR+DMOTuN7HNsZB2rfibAeERLQKBfwHw80gnA0f5jzX71nNl7siMCvgSs2/IRX8VzGQ3jkctqISgHAubjUY4JwKUOoAgBAQsB67ZsfXKzKKO3PKyNrOvQmxfxtCNg3ZaP6gRAv0HPctniK3gt4ycvBIKAdVu27mshzpoerY2s67Ama8pSloB1W35aJwBPGBtcJfldYJwn2SGwtsD5csB3Gh/0ceP8asyO8ajGWqVMSwWyjEc6AXhsaWSd/fW7p2/tvMZTBEoS0K/s/YikA8ZBMwGYBmU8mjZii7YEso5HV4ilfsewdbqhrTqitBUJfChDf9D+dXlFRrmKwniUS5Z8SxXIOh6dLirHJFlPAF6SPG8sVZy4mxTQmfZNkrTtWveH5yXP0ySxjAswHo37sLYdgdXGowfF1HrAC/ndK3lzT0A7jbbUkl4ogR+WFNqt9eMDpcJsEDfj0QboHNKVwKrj0ful6NYD3m5+eoXhbknvlnSxJD4sSBBYNhXQNvgGSe+RpG0zx1Ww3T7wXjkGS5wA41GcE1vVI7DJeKSXGHQ5W9JTkvbrExYEEDAV0LcUzpX0rGmu9WbGeFRv3VKy7QVOjEf6XwC6fF/S/T/9jR8IIGAtoG+DcfKPV2U8irdiSwRSBU6MR2ECoBnovz2xIICAvQB9K90Us3Qz9kAgRuBE39qdAOiNN9+I2ZttEEAgWoB+FU110oa4ncTBEwRMBE7qV+EegJDzZfLLNyV1Xw/reUQAgXgBvQnwTZKYWMeb7W7JeLSrwe8ILBPYMx7tXgHQrL8l6XPLjsHeCCBwXOAz8sjJf35zYDyab8eeCHQF9oxHfX/pv1b2+lNJZ3X35jkCCEQL/Ei2/GVJ3PwXTda7IeNRLwsvIpAk0Dseda8AaI4/lPS+pKzZGAEEugK/LS9w8u+qpD9nPEo3Yw8EugK949H+7lbHn39HHl8jSd+DY0EAgTQBvcv2Y2m7sPWIAOPRCA6rEJgQGByP+t4CCHnp5OCPJL0jvMAjAghMCnxJttA+8+LklmyQIsB4lKLFtgj8TGB0POp7CwA4BBBAAAEEEKhcYOgtAC22XsLUz+5nQQCBeIHzZdOfl/TF+F3YMkKA8SgCiU0Q6AiMjkdDbwFcK5nw74AdSZ4ikCBwjWz7+YTt2XRYgPFo2IY1CMQI9I5HfRMA/bebb0t6XUyubIMAAr0Cvf9207slL44JMB6N6bAOgTiB3vGo7x6Aj0t+nPzjUNkKgSGBX5AVHx1ayevRAoxH0VRsiMCgQO941L0C8Kuyu35yWff1wVxZgQACgwL60ZtvlvT1wS1YMSbAeDSmwzoE0gT2jEfdE72e/N+YlidbI4DAiMDXZJ1OAljSBRiP0s3YA4ExgZPGo923AN4qe3HyH6NjHQLpAvplQJpY0gQYj9K82BqBGIGTxqPdCcAHYvZmGwQQSBagbyWT7cMs3Yw9EIgRONG3wlsAZ8teT0ka+1yAmIzZBgEE9gq8JC+dJ+mZvat4pUeA8agHhZcQMBLYMx79jmSsNwjkSs9L3p+V9C5JF0k6XRILAlsKaBvUtqhtUtumttFc7V/zfa8kljgBxqM4J7aqR2DT8ehBccw1+N0jeeunEbEg4Fng9RKcfnBPrn7wVc+FdxYb45GzCiGc1QVWG48OStFekGQ98OllhhtWZ+OACCwTuFF217Zr3R/0CsNpy0JrYm/GoyaqmUJGCmQfj66QQKwHO83vg5EFZDMEvAncJAHl6BOXeyuow3gYjxxWCiFtKpB1PPpdKZr1YKeX/VkQKFngXgneul98uGSQlWJnPFoJmsMUJZBtPLpLGCwHOr3Uqe9fsCBQsoDet2J9Y+AdJYOsFDvj0UrQHKYogSzjkX4OwAXGDIclv+8a50l2CKwt8KQc8H7jg15onF+N2TEe1VirlGmpQJbxSCcA5y6NrLO/TgBYEKhBwLotW/e1Goy7ZbA2sq7Dbrw8R2AtAeu2fK5OAPSuW8vlIcvMyAuBDQWs27J1X9uQJtuhrY2s6zBbwckYgQkB67Z8UD8J8JikUycOnLL6DNn4aMoObIuAUwE9GR0xjE372isM86sxK8ajGmuVMlkImI9HOgHQGwAtF82TBYFaBOgf69Yk3ut6c7SyBEz7h74FwIIAAggggAACjQkwAWiswikuAggggAACKsAEgHaAAAIIIIBAgwJMABqsdIqMAAIIIIAAEwDaAAIIIIAAAg0KMAFosNIpMgIIIIAAAkwAaAMIIIAAAgg0KMAEoMFKp8gIIIAAAggwAaANIIAAAggg0KBAqROAA1JX10v6tKRHJOlHD2vS3/W16yTpNlst3uPbyoXjIlCjgPf+7j2+GttEMWXSjxa0TLkLfo0cQL9ueCrmJ2Sbq3MH05O/9/h6QualEYGpdpa6fuRQrBKBVM+p7XOjeu/v3uPLXT+15T/V3lPXF9Ph9ktN3i4ptYC3yT5rXOnwHl9tHWGt8qS2t6nt14q71ONM+aWuz+Xgvb97jy9XvdSeb2r7n9o++YQ6mWGmGphz8g+x3pIppt1svce3Gyu/xwuENmT1GH/kNre0cg755FL03t+9x5erXmrPN7Rrq8ciJgB6GWtpgQ9lbBne48tY9OqzXtruuvtXD7awgF2vpc8XhtO7u/f+7j2+XlRejBJY2h+6+y8+se7JMKoY8RvpDSz6fn73OKnPn5Q8NC/rxXt81uVtLb/Udja1fWt+qeWd8ktdn3r8qe2993fv8U35sn5cILX9T22/+MTaPcB4+Olr9W7/7jHmPr82/fCTe3iPb7IAbDAqMLetDe03ejBWmvX14G9N6r2/e4/Puj5ayy+0a5PHNW6OW1pBlpfur1waTM/+3uPrCZmXEEBgpoD3/u49vpns7JZDoIQJwCWGBb/UMK+Qlff4Qpw8IoDAcgHv/d17fMtrgBzMBE6RnPRSguWieVouRySzg0YZ6ocFnWGUV8jGe3whTh7nCXjvH/NK5Xcv797e+7v3+Py2vDIiM+0fJVwBsKyWly0zy5CX9/gyFJksEWhWwHt/9x5fsw3HquAlTAC+Z1VYyccyrxCWZZ6WeYX4eEQAATsByz5qmVcooWWelnmF+Hh0JFDCBOBhQ6+HDPMKWXmPL8TJIwIILBfw3t+9x7e8BsjBTKCECcBhs9Lu23efYV4hK+/xhTh5RACB5QLe+7v3+JbXADmYCuhNBZbJNDjJ7FRJjxvEqF8gdECS9eI9PuvytpafZd8wvYGn0orw7u29v3uPr9Jmu1qxzPuHeYYZKPRb/ZbGmeMzAEJRvccX4uQxXWBpu+vunx5BW3t0vZY+z6Hnvb97jy9HnbSS59L+0N1/8Yl1T4aZakK/1a97rNjnN2eKaTdb7/Htxsrv8QKxbSx2u/gjt7llrGPsdrkUvfd37/Hlqpfa841t97HbzT6pDh0gVwXo/Qq3Sho67tDr+k2Aa9zr4D2+XPVSe75D7Wru67V7LS3fXNeh/ZbGM7S/9/7uPb4hV14fFxhq53NfTz6hTh1oPPzlaw9JFjH3BOg2OS/7D5XEe3xDcfN6v8BUe09d338UXg0CqZ5T24d8cz167+/e48tVL7XmO9Xek9aX8EmAfRWpN7pow9YT/CWSzpOky9OS9N9gDkvSO/5fkLTF4j2+LUxKPaZ2KMvF+pMyLWPzkFeJ3t77u/f4PLS7UmIw7R+lTgBKqSziLF/AtMMJBxOA8TaB97gPa9sWMO0fa7w33nZ1UXoEEEAAAQQcCjABcFgphIQAAggggEBuASYAuYXJHwEEEEAAAYcCTAAcVgohIYAAAgggkFuACUBuYfJHAAEEEEDAoQATAIeVQkgIIIAAAgjkFmACkFuY/BFAAAEEEHAowATAYaUQEgIIIIAAArkFmADkFiZ/BBBAAAEEHAroBOCYcVwHjfMjOwS2EjjT+MDPG+dXY3aMRzXWKmWyEDAfj3QCcNQisp08ztn5nV8RKFnAui0fKRljpdgZj1aC5jDFCZiPRzoBsB6ULi2OlYAR6Bf4O/0vz371udl7trMj41E7dU1J0wTMxyOdAHw/LYbJrbf4Ct7JoNgAgRkC75yxz9guz4ytZN1PBRiPaAgI9AuYj0c6AXis/1izX71K9rxg9t7siIAPgfMlDOsO96iPormOgvHIdfUQ3EYCWcYjnQA8Ylwg/e7pW43zJDsE1hTQr+z9iKQDxgdlAjANyng0bcQWbQlkHY9+TSz1O4at0w1t1RGlrUjgQxn6g/avv1+RUa6iMB7lkiXfUgWyjkeniYr+e5L1BOAlyfPGUsWJu0kBnWnfJEnbrnV/+LHk+UpJLOMCjEfjPqxtR2C18eiPxdR6wAv53St5c09AO4221JJeKIEflhTarfXjl0uF2SBuxqMN0DmkK4FVx6N/IUW3HvB28zsm+d8t6d2SLpbEhwUJAsumAtoG3yDpPZK0bWob3W2z1r+/T/JniRNgPIpzYqt6BDYZj/QSgy6vk/S0JL2BjwUBBGwFXpDszpH0I9tsq82N8ajaqqVgDgROjEf6XwC6/EDSF376Gz8QQMBa4L9Khpz841UZj+Kt2BKBVIET41G4AqAZvFHSN1JzYnsEEJgUeJNs8fXJrdhgV4DxaFeD3xGwEzgxHoUrAJr1NyXpzTcsCCBgJ/DfJStO/umejEfpZuyBwJTASePR7hUA3fEtkh6Q1H1dXmJBAIFEAb2RUGfbXFlLhDu+OePRPDf2QqBPYM94tHsFQHfQKwCf6tuT1xBAIFngDtmDk38y24kdGI9OUPALAosF7pAcThqP+v7SP0s2+t+SXi2JBQEE5gn8ueym/2b4w3m7s9dxAcYjmgICywV6x6PuFQA9zLOSflOSXi5gQQCBdAHtO/9cEif/dLvuHoxHXRGeI5AmMDge7R/IR7+R6zWSLhtYz8sIIDAs8O9k1e8Pr2ZNogDjUSIYmyOwIzA4HvW9BRD2OyC//BdJ/yC8wCMCCEwKfEG2uFKSftgGi50A45GdJTm1IzA6Ho1NAJRIv5jjS5L0f3JZEEBgXOBPZPXbJR0d34y1MwUYj2bCsVuTApPjUd89ALtSfyVP3ilJM2JBAIFhgf8hq94hiZP/sNHSNYxHSwXZvxWBqPFoagKgWPoRppdL+qI+YUEAgT0CepXsCkl6py1LXgHGo7y+5F6+QPR4NHQTYJdA38+8W9KZkvTGwKm3DmQTFgSqF9C7a/+9pN+S9OPqS+ungIxHfuqCSPwIrDIeHZLy/oUkPRgJg1bbgP4l+o8lsWwrwHjEGNTqGLRb7lXHI/0Xwf8k6WVJu0HwOx61twFt83dK0q+sZfEhwHjEuFP7uDNUvk3HozdL//+KpKHgeB2bmtqAfpHG3/VxziOKHgHGI8abmsabqbK4GY/+nnTGw5KOSZoKmvUYldQGnpc2fa8kTvyCUMjCeMQYU9IYkxKr6XhkfTPfa2WA+A1JV0vSzw54hSQWBEoT+IkErF9H+3lJn5Gk76+xlCfAeFRenRHxXoFs45H1BGA39FfKE52JXyrplyRdLOksSa+SdFCSfrIXCwJbCejVqiOS/p+kZyQ9IukxSQ9L+rok7uoXhIoWxqOKKrPComwyHuWcAFRYR6sUSS8HWS7UsaUmeSHQlgDjUcX1HfNBQBUXn6IhgAACCCDQpgATgDbrnVIjgAACCDQuwASg8QZA8RFAAAEE2hRgAtBmvVNqBBBAAIHGBZgANN4AKD4CCCCAQJsCTADarHdKjQACCCDQuAATgMYbAMVHAAEEEGhTgAlAm/VOqRFAAAEEGhdgAtB4A6D4CCCAAAJtCjABaLPeKTUCCCCAQOMCTAAabwAUHwEEEECgTQEmAG3WO6VGAAEEEGhcgAlA4w2A4iOAAAIItCnABKDNeqfUCCCAAAKNCzABaLwBUHwEEEAAgTYFmAC0We+UGgEEEECgcQEmAI03AIqPAAIIINCmABOANuudUiOAAAIINC7ABKDxBkDxEUAAAQTaFGAC0Ga9U2oEEEAAgcYFmAA03gAoPgIIIIBAmwJMANqsd0qNAAIIINC4ABOAxhsAxUcAAQQQaFOACUCb9U6pEUAAAQQaF2AC0HgDoPgIIIAAAm0KMAFos94pNQIIIIBA4wJMABpvABQfAQQQQKBNASYAbdY7pUYAAQQQaFyACUDjDYDiI4AAAgi0KcAEoM16p9QIIIAAAo0LMAFovAFQfAQQQACBNgWYALRZ75QaAQQQQKBxASYAjTcAio8AAggg0KYAE4A2651SI4AAAgg0LsAEoPEGQPERQAABBNoUYALQZr1TagQQQACBxgWYADTeACg+AggggECbAkwA2qx3So0AAggg0LgAE4DGGwDFRwABBBBoU4AJQJv1Tqm3FThVDn+9pE9JekzS0eNJf/+kpOsk6Ta1LK2Vt5Z6oxwIILCywF/L8SzTyuFzuAmBq2X9E5Km6vhx2eaqibxKWN1aeUuok5QYp9pp6vqUY7MtAs0JpHaoqe2bA3RaYL3adoukqfrqrtd9SrxS11p5nTa7xWF12+PS54sDIgMEahZY2sG6+9dsVVLZbpVgu3UT+/wPZd+/WVBh9eR/h6TY8nW3u7mgstYeardulj6v3YvyIbBIYGkH6+6/KBh2NhG4RnLp1kvq809IHvtNosmbicaosaaWb3f7l2X/Gt7+yCu9Tu679WLx+zpRcxQEChWw6GS7eRTKUE3YegNczHv+u3U29Lv3KwFL//LfLfeT4nagmlZQbkF268Ti93IliByBFQQsOtluHiuEzCFGBH5D1u3Wx9LfvV4JsPjLv2uj/w3Bsq1At06WPt+2NBwdAecCSztYd3/nxa0+vE9LCbt1svS5tysBln/579rcVX3r8F/A3fqw+N1/iYkQgQ0FLDrZbh4bFoVDi4D+O99ufVj97uVKQI6//IPRo7SgzQVCXVg9bl4gAkDAs4BVRwv5eC5rC7Hph/yEurB+3PpKQK6//IPTkRYaiPMyhrqwenReXMJDYFsBq44W8tm2NBxdT2KhLnI8bjUJyH3yV6vnaD6bC1i32c0LRAAIeBagw3munfTYcr0FsNtO1n47IOdl/91y8RZAenuz3mO3Pix+t46P/BCoSsCik+3mURVOgYXRz/bfrY9cv691JWCNv/yDkU5sWLYVCHVh9bhtaTg6As4FrDpayMd5casPT7/0J9RF7sfcVwLW+ss/OF1bfevwX8BQF1aP/ktMhAhsKGDV0UI+GxaFQ4uAfhDQGm8DhPrOdSVAT/53SArHyf2o34yodizbCljX87al4egIOBegwzmvoBnh6cfaWtfrWH7WVwLW/stfPwr40AxndrEXGGtnc9bZR0iOCFQkMKdTje1TEU3RRZnzTYBj9Tq17jOiZfEFQmuf/LVcv1d0TdcV/FQ7S11flw6lQcBYILVDTW1vHB7ZzRTQm+f0L/Op+rJcv/RKwBYnf41ZrVh8CFi2R82LBQEERgTocCM4ha9a8w760I7mXgnY4uSv9y/ocVn8CIR2ZPXop2REgoBDAauOFvJxWMSmQyphEsDJv+kmelLhwzhi9XhS5jxBAIGTBaw6Wsjn5Nx55kHA8ySAk7+HFuInhjCOWD36KRmRIOBQwKqjhXwcFpGQRMDjJICTP02zKxDGEavHbv48RwCBHQGrjhby2cmaX50JeJoEcPJ31jichBPGEatHJ8UiDAR8Clh1tJCPz1ISVRDwMAng5B9qg8euQBhHrB67+fMcAQR2BKw6WshnJ2t+dSqw5SSAk7/TRuEkrDCOWD06KRZhIOBTwKqjhXx8lpKougJbnIjvlCA0hbayxuPSzybouvE8r4B1m8gbLbkjULgAHa7wClwQ/hZXAqzb21h+/J//gsax0a5j9Tln3UbF4LAIlCEwp1ON7VNGqYkyCNQ6CeDkH2q4rMexsWXOurJKT7QIrCwwp1ON7bNy+BzOQKC2SQAnf4NGsVEWY2PLnHUbFYPDIlCGwJxONbZPGaUmyq5ALZMAPflbfClR14fn6wiMjS1z1q0TNUeJEqBjRjGtutExOdoBwyNqJ2WJF/hL2fRpSf9T0uHjSetk7UW/Eve3jh/0n619cKPj6fcQ/FNJLxrll5qN9iP9KuYrJf2KpPMknS6JZRuB57c5LEdFoByBP5dQ58ys2SeP2xNSH1dv2HxKvRKw9V/+10idfZe+5Gos+eGG/YhDI1CEwLclSk7m/gxuk3rRk/EWS2mTgC1P/vrvlLdLog/5M/hfW3QejolASQL3SLAMXj4NbtmwIZUyCdjy5K/Vw8nfZ9/RMe1zG/YfDo1AEQL/UqJkAuDX4NCGrcj7JGDrk79e9qfv+DW4acO+w6ERKELgMomSQcyvweNSP5Y3aaY2Sq+TgK1P/lonvOfvt9/omHZpamNnewRaE9AB/ilJTAL8Gly7caP0NgnY+uSv1XE9fcb1mPFnUj/ablkcCVAhjirjeCj67193+QuLiHYE9N/KtlzCvwjq5+pvvWz9r36h/FvXSYiDx34BHdO03bIggMCEgP6/8k8kcRXAp8EjE/W31uqtrwR4+Ms/WD9Gf3E7XuhYdk6oKB4RQGBa4D/KJkwAfBo8N119q22x1STA08lfsbVO6C8+DT62Wm/gQEkCvAWQxLXqxv9KjsYHZ6xKHn0wPdF4WU6RQDStvWxxzLEyeotnLNaW1v1ACvuvWyowZUXASuA6yYi/avwZeHkLQD/05hMbthF9/9/Lx4k/uqEDfXS4j275KZrSJFgQKFvg4xI+A4wvg086aFJbn/xDm/QyCfg0/cTdOPFRB/2EEBAoWkD/wrpfUhhwedze4tc3blFeTv6hLXqYBHC1bPt+EdqDPuoXaWk7ZUEAgYUCr5T9mQT4GOD0g4BOXVifS3b3dvIPg/7WkwD9ICD94qYQD4/bWejJX8csFgQQMBLQKwG/L4mBbVuDLf/f3OvJP7TJrScB+n5ziIXHbSz0jn/+8hcEFgRyCOjl52clMcCtb7DllwF5P/mH9rj1JEC/tTHEwuN6Fs+IOzf8CQILArkFXi0H0KsBfFjQegOcnvy3+rfZUk7+4YS75SRA6+hWSSEWHvNa/Fis9a/+V0liQQCBFQX007X+raT/I4mBLo+BvufPZf902y0nAVJl+w5J0rqjX+Qx+DOx/TeSzpbEUqgAH55RaMV1wta/evSbtt4u6RJJF0k6V9JBSVt+c50cvrjlqET8tKSHJenNTPdJekHSFov+5f8Hkn5zi4MbHPOzksd7JL1okNecLPRmTZ0I6ARO+4V+xLb2CZZ4gWOyaegT+nHLD0n6siTtH3y2vyCwIIAAAtYCpV32H/pLe+srAdb1Qn4IIIAAAghkE9ArOlt+wt/QyXzu60wCsjUVMkYAAQQQqEVAT/53SJp7svW6n7cvD6qlvVAOBBBAAIEKBGo9+YdJCZOAChopRUAAAQQQsBXY4j3/O6UImsIJeo1HfWtDy8qCAAIIIIBA8wJb/OUf/hrf8tjNVzwACCCAAALtCng4AXuIod0WQMkRQAABBJoT8HTi9RRLcw2BAiOAAAIItCPg8YTrMaZ2WgQlRQABBBCoXsDzidZzbNU3DAqIAAIIIFCvQAkn2BJirLeFUDIEEEAAgeoESjqxlhRrdQ2FAiGAAAII1COgJ9S1P9536f/cb/HZBBqzWrEggAACCCBQhcAtUoo1PmgnHCP8n/9SvC2uBNy8NGj2RwABBBBAwIPA1RJEODGv8bj0L/+u2dpXAvRrZq/qBsFzBBBAAAEEShLQ76R/QtIaJ349htVf/l3jta8EPCkBHOgGwXMEEEAAAQRKEbheAl3r5G/9l3/XeO0rAdd1A+A5AggggAACpQh8SgJdYwKgf/mv8SU7a14JuKuUSiZOBBBAAAEEugKPywu5JwC5//LvlmmtKwGPdg/McwQQQAABBEoROCqB5pwArPWXf9d7jSsBR7oH5TkCCCCAAAKlCOhJLNcEYKuTf7DPPQl4LhyIRwQQQAABBEoTyPUWwNqX/Yfcc74dwFsAQ+q8jgACCCDgXuCTEqH1FYCt//Lvoue6EqCTHBYEEEAAAQSKFLD+N0Avf/l3KyPHlYBruwfhOQIIIIAAAqUI6AcBWb0N4O0v/24dWF4JeEwyVzsWBBBAAAEEihXQj7Vd+jaA17/8u5VicSVAPwr4UDdjniOAAAIIIFCiwJIvA/L+l3+3PpZeCfi9boY8RwABBBBAoFQBPSnqt9ylXAnQv4R1H923tKW18pZWP8SLAAIIILCygL4dEHNPgL4HfuXKseU4XGvlzWFInggggAAClQjozW36RTd3SXpEkn5aoCb9/U5Jevd7TTfAtVZeqT4WBBBAAAEEEEAAAQQQQAABBBBAAAEEEEAAAQQQQAABBBBAAAEEEEAAAQQQQAABBBBAAAEEEEAAAQQQQAABBBBAAAEEEEAAAQQQQAABBBBAAAEEEEAAAQQQQAABBBBAAAEEEEAAAQQQQAABBBBAAAEEEEAAAQQQQAABBBBAAAEEEEAAAQQQQAABBBBAAAEEEEAAAQQQQAABBBBAAAEEEEAAAQQQQAABBBBAAAEEEEAAAQQQQAABBBBAAAEEEEAAAQQQQAABBBBAAAEEEEAAAQQQQAABBBBAAAEEEEAAAQQQQAABBBBAAAEEEEAAAQQQQAABBBBAAAEEEEAAAQQQQAABBBBAAAEEEEAAAQQQQAABBBBAAAEEEEAAAQQQQAABBBBAAAEEEEAAAQQQQAABBBBAAAEEEEAAAQQQQAABBBBAAAEEEEAAAQQQQAABBBBAAAEEEEAAAQQQQAABBBBAAAEEEEAAAQQQQAABBBBAAAEEEEAAAQQQQAABBBBAAAEEEEAAAQQQQAABBBBAAAEEEEAAAQQQQAABBBBAAAEEEEAAAQQQQAABBBBAAAEEEEAAAQQQQAABBBBAAAEEEEAAAQQQQAABBBBAAAEEEEAAAQQQQAABBBBAAAEEEEAAAQQQQAABBBBAAAEEEEAAAQQQQAABBBBAAAEEEEAAAQQQQAABBBBAAAEEEEAAAQQQQAABBBBAAAEEEEAAAQQQQAABBBBAAAEEEEAAAQQQQAABBBBAAAEEEEAAAQQQQAABBBBAAAEEEEAAAQQQQAABBBBAAAEEEEAAAQQQQAABBBBAAAEEEEAAAQQQQAABBBBAAAEEEEAAAQQQQAABBBBAAAEEEEAAAQQQQAABBBBAAAEEEEAAAQRqEvj/5ppLRA0mcZIAAAAASUVORK5CYII=;" vertex="1" parent="1">
          <mxGeometry x="-5" y="424" width="46" height="46" as="geometry" />
        </mxCell>
      </root>
    </mxGraphModel>
  </diagram>
</mxfile>
